<svg width="930" height="807" xmlns="http://www.w3.org/2000/svg"><defs><marker id="a" overflow="visible" markerHeight="11" orient="auto-start-reverse" preserveAspectRatio="none" viewBox="0 0 7.7 5.6"><path transform="scale(.7)" d="M-2-4L9 0-2 4a6 6 0 0 0 0-8z" fill="context-stroke" fill-rule="evenodd"/></marker><marker id="b" overflow="visible" markerHeight="6" markerWidth="6" orient="auto-start-reverse" preserveAspectRatio="none" viewBox="0 0 7.7 5.6"><path transform="scale(.7)" d="M-2-4L9 0-2 4a6 6 0 0 0 0-8z" fill="context-stroke" fill-rule="evenodd"/></marker><marker id="c" overflow="visible" markerHeight="11" orient="auto-start-reverse" preserveAspectRatio="none" viewBox="0 0 7.7 5.6"><path transform="scale(.7)" d="M-2-4L9 0-2 4a6 6 0 0 0 0-8z" fill="context-stroke" fill-rule="evenodd"/></marker><marker id="d" overflow="visible" markerHeight="11" orient="auto-start-reverse" preserveAspectRatio="none" viewBox="0 0 7.7 5.6"><path transform="scale(.7)" d="M-2-4L9 0-2 4a6 6 0 0 0 0-8z" fill="context-stroke" fill-rule="evenodd"/></marker></defs><path fill="#404040" style="font-variation-settings:normal" d="M-1-1h931v808H-1z"/><path d="M302.6 194.9l20.9-45 99.3 89.7 64-77.1 22.9 14.6-44.3 57 33 28 10.8 56.4 54 48 80-101 25.2 19.2-83.3 103.6 23.4 21.4-44.8 49.8-59.4 15.8-46.6 50.5 27.4 24.9-15.7 23.4c-25-10.3-53-10.7-59.4-5.5L364.7 536l-21.1-60.5-45.2-33.8-44.2 54.3-24-14.7 47-56.4-55.1-45.6 12.4-30.8 32.5 26.3 25.3-25 57.4-18.2 44.7-57.5z" fill="#ee878e" stroke="#ee878e"/><path d="M457.2 268.7l-34.9-30 20.8-26.2" fill="none" stroke="#fff" stroke-width="6" style="-inkscape-stroke:none;font-variation-settings:normal"/><path d="M-1.5 181.9l206.6 184.5c42.7 38.2 36.7 101.5 1 173.1L71.6 808.7M225 805l102.8-176.3c54.5-93.5 141.7-58 184.4-18.3l213.2 198.4M162.4-4.4L266.7 94c72.5 68.2 174.7 40.9 210.5-20.3l43-73.7M837-1.7L704.2 220.7C663.5 288.9 671 389 733.6 451.6l222 221.2" fill="none" stroke="gray" stroke-width="5"/><path d="M166.8 331L277.3 96.6" fill="none" stroke="gray" stroke-dasharray="8, 4" stroke-width="4"/><path d="M217.3 376.9l116.8-250.4M476 75.8l228 152.3M426.5 118.6l257.7 175.7m0 54L465.7 577.6m237.6-157.5L521.6 618.8m-292-140.7l134 106.8m-41.6 48l-112-91.4" fill="none" stroke="gray" stroke-dasharray="8, 4" stroke-width="4" style="-inkscape-stroke:none;font-variation-settings:normal"/><path d="M316.8 417l99.7-125 120.1 101.5-101.2 111.7z" fill="#404040" stroke="#fff" stroke-dasharray="12, 6" stroke-width="6"/><path d="M489.2 554.9L457 531.3l45.4-56.6 61.1-17 46.4-49.2m-23.3-23.6l82-99.2m-25.7-17.5L565.1 366l-57.8-48.6-13.4-57-49.8-47.6 39.3-49.3M277 423.4l-42 55" fill="none" stroke="#fff" stroke-dasharray="12, 6" stroke-width="6" style="-inkscape-stroke:none;font-variation-settings:normal"/><path d="M554.2 417.3l30.3-29.5 24.1 22" fill="none" stroke="#fff" stroke-width="6"/><path d="M404.2 518.4l32.3 28.3-17.1 22" fill="none" stroke="#fff" stroke-width="6" style="-inkscape-stroke:none;font-variation-settings:normal"/><path d="M255.3 494.7l43.6-55.4 45 35.1 23.2 58.9 50.6 38.2M304.2 195.2l90.7 77.2-46 60.5-56 15.2-40.3 54-30-21.3" fill="none" stroke="#fff" stroke-dasharray="12, 6" stroke-width="6" style="-inkscape-stroke:none;font-variation-settings:normal"/><path d="M252.3 402.9l24.2 19.5 26.7-34.6" fill="none" stroke="#fff" stroke-width="6" style="-inkscape-stroke:none;font-variation-settings:normal"/><path d="M235 348.4l33.4 27.9m155.3-137.4l-95.4-85.7m180.5 26.4l-42 50.2" fill="none" stroke="#fff" stroke-dasharray="12, 6" stroke-width="6" style="-inkscape-stroke:none;font-variation-settings:normal"/><path d="M468.2 257.4s-18.6-18.7-22-19.5c-2.2-.5-4.3 2.1-4.3 2.1" fill="none" marker-end="url(#a)" stroke="#fff" stroke-width="2"/><path d="M565.8 433s18.7-18.6 19.5-22c.5-2.2-2.2-4.3-2.2-4.3" fill="none" marker-end="url(#b)" stroke="#fff" stroke-width="2"/><path d="M294 374.1c0 .1-18.7 18.7-19.5 22-.5 2.2 2.2 4.4 2.2 4.4" fill="none" marker-end="url(#c)" stroke="#fff" stroke-width="2"/><path d="M390.3 528.8s18.6 18.7 22 19.5c2.2.5 4.3-2.2 4.3-2.2" fill="none" marker-end="url(#d)" stroke="#fff" stroke-width="2"/><text x="688.2" y="310.4" fill="#0f0" font-family="sans-serif" font-size="32" style="line-height:1.25" xml:space="preserve"><tspan x="688.2" y="310.4">1</tspan></text><text x="259.8" y="625.2" fill="#0f0" font-family="sans-serif" font-size="32" style="line-height:1.25" xml:space="preserve"><tspan x="259.8" y="625.2">2</tspan></text><text x="612.5" y="388.1" fill="#00fc00" font-family="sans-serif" font-size="32" style="line-height:1.25" xml:space="preserve"><tspan x="612.5" y="388.1">3</tspan></text><text x="371.5" y="95.5" fill="#0f0" font-family="sans-serif" font-size="32" style="line-height:1.25" xml:space="preserve"><tspan x="371.5" y="95.5">4</tspan></text><path d="M284.1 634.1l69.2-84.5 94.6-37.3 70.5-69.2 43.7 2.2 26.2-21.8-10-17.1-368.8-319" fill="none" marker-end="url(#b)" marker-mid="url(#b)" stroke="#0f0" stroke-width="2"/></svg>