<svg width="2508.4" height="488.9" viewBox="-444.14 375.91 2508.4 488.9" xmlns="http://www.w3.org/2000/svg"><g font-family="none" font-size="none" font-weight="none" stroke-miterlimit="10" text-anchor="none" style="mix-blend-mode:normal"><path d="M-18.295 687.81l-14.347-7.779-9.154-4.285-6.314-7.737-4.504-11.198-11.638-11.884-.449-13.202-6.78-10.005-3.574-13.083 6.581-10.237-2.601-14.87-8.743-9.488 3.517-8.328-.174-3.913 66.236 130.39zM350.23 514.55l1.272 11.623 7.85 10.313.072 12.911-1.872 13.646-1.5 13.783-11.686 8.902-2.687 8.674 1.67 12.29-8.24 8.375-6.891 5.259-2.143 8.396-2.366 9.832-12.397 7.105-4.055 11.707-10.584 10.092-14.578 6.77-5.34 8.691-9.008 5.599-14.832.85-10.73 10.454-10.864-4.374 112.18-187.17z" fill="#d0d0ce"/><path d="M543.46 398.96l-.295 83.999-144-.505-.21 60 106 .372-.295 83.999-106-.372-.505 144-84-.295.446-126.94 11.572-1.792 3.88-14.471 12.315-8.311 4.881-9.416.147-10.2 9.07-13.27 3.94-14.082-2.498-12.135 7.024-12.443-2.992-9.66-2.449-8.312 3.236-8.043 2.801-11.409-7.716-9.71-2.124-8.828 5.496-13.625-5.756-12.613-5.366-12.686-6.66-11.061-12.017-4.853-7.035-9.34-8.983-1.95.095-26.853z" fill="#d0d0ce"/><path d="M578.93 574.38l-.352 8.3-8.86 12.657 1.082 14.993-5.658 10.994.268 16.46-12.113 8.157-5.545 9.61 2.657 10.375-13.767 8.672-2.403 13.817-10.28 10.195-9.102 10.782-7.698 7.951-2.92 12.321-11.67 10.148-12.706 5.463-8.496 13.129-14.068 5.063-8.357 5.22-10.837 1.518-13.064-.141-7.798-5.784-9.678-2.47-9.581-3.712 181.18-189.88zM760.26 398.36l-.149-.138 1.199.18zM816.79 381.82l1.695 24.611-3.87.551-14.162-4.506-8.812-1.568-8.67-9.655-13.008 7.025-11.795-5.757-7.77-6.13z" fill="#d0d0ce"/><path d="M854.6 686.24l99.5.216-.182 84-183.5-.398.808-372 7.947.017.167.114 1.045-.112 8.291.018 7.317 6.665 11.357 6.579 13.473-6.086 7.964 10.245 8.679 2.189 13.807 5.498 3.898-.275z" fill="#d0d0ce"/><path d="M872.53 577.41l29.862-22.202.89.372 14.67 7.046 10.885 11.355 3.662 15.489 9.097 10.787 12.522 9.968.802 9.008 10.64 4.418 6.401 13.978 2.742 14.515 9.231 8.047-3.437 14.717 9.905 5.785-.278 16.305 5.477 6.635-2.257 9.201 12.103 9.045-5.34 15.019 11.08 13.114-.027 11.457.883 3.586zM1344.6 548.42l44.907 1.779 2.837 6.486-8.553 14.544 2.8 9.033-2.193 14.937 4.931 9.026-4.058 8.973-2.12 13.995-2.18 11.976 9.693 12.314-1.345 9.075-6.72 12.785-4.284 14.739 3.286 13.648 2.555 8.807-5.87 8.297-2.158 7.989-4.54 7.197 1.178 12.19-9.77 8.238-8.432 10.349-9.483 3.848-9.266 1.54zM1812.5 655.15c-10.056 8.544-23.709 14.728-40.957 18.549-15.947 3.533-30.662 3.38-44.145-.461s-25.483-10.23-35.999-19.166-19.439-19.933-26.771-32.99a162.85 162.85 0 01-2.204-4.06l.008-.516 5.463-7.946 13.323-6.135 14.532-2.254 13.95-4.141 12.949 3.027 13.194-.242 14.166-4.382 9.943 6.341 13.328-1.744 8.681 3.381 11.542-.576 13.103 2.802 6.833 7.87 14.99-3.056 3.815 12.36 5.315 1.958c-6.738 12.451-15.092 22.911-25.06 31.381z" fill="#d0d0ce"/><path d="M1224.8 473.07l3.375-9.428M1335.7 558.23l.011 15.569M1335.7 551.79l.023 31.482" fill="none"/><path d="M771.3 398.36l-.161 84-120.17-.23-1.259-2.5-10.103-5.758-2.225-10.224-7.086-6.707-8.621-10.534-8.483-6.93-2.45-8.829-15.877-7.242 11.878 7.235.45 8.824 6.482 6.927 6.62 10.53 5.087 6.703.225 10.22 8.103 5.755.852 2.499-7.42-.015-.116 60 106 .204-.161 84-106-.204-.115 60 144 .277-.161 84-228-.438.033-17.319 9.501-3.91 8.717-4.878 9.637-1.18 9.566-8.899 6.808-8.566 2.461-9.54 6.708-13.362-2.887-15.37 5.446-12.712 1.467-15.395-6.371-10.943.101-11.066-.83-14.087.426-14.471-7.777-11.67 4.003-15.77-9.074-5.691-2.602-10.785 3.16-14.258-11.533-11.745-3.474-11.867-11.113-10.123-2.299-15.277-5.463-6.26-4.075-4.63.177-92.226z" fill="#d0d0ce"/><path d="M650.96 482.13l-16.407-.031M210.51 546.82l-11.426-.929" fill="none"/><path d="M278.73 485.75c8.773 11.142 14.715 23.506 17.824 37.093 2.935 12.822 3.322 26.467 1.162 40.934l-.588.955-10.605-.997-10.353 3.68-13.184 3.211-9.297-4.992-13.38-2.869-12.944-1.012-9.763-3.922-5.018-11.13-2.072.12.148-1.164-4.55-11.683 8.582-10.942-1.556-16.159 2.713-12.187-3.704-15.066.684 12.443-4.223 10.876.046 14.848-10.092 9.631 3.04 10.372-2.513 8.105-10.035-8.715-10.504-4.223-13.215-4.003-5.565-14.906-17.496-1.658-5.422-12.854-6.12-8.47-15.364-3.04-7.284-6.922-3.99-1.98L144.425 404l91.875 49.325-6.046 13.62 6.001 9.404 4.029 11.432-6.09 12.053 9.614-10.16-2.266-10.486-4.24-8.459 7.586-12.79c13.884 7.523 25.164 16.794 33.841 27.814z" fill="#d0d0ce"/><path d="M236.3 453.32l8.588 4.612M219.45 674.22l-20.39 6.713M77.227 528.9l3.223-5.983M-307.74 607.66l7.03-24.073M43.322 591.85l13.328-24.744" fill="none"/><path d="M297.32 566.28c-2.632 15.43-8.296 31.216-16.99 47.357-8.536 15.847-18.483 29.041-29.84 39.583-9.702 9.005-20.051 16.005-31.046 20.998l-6.422-10.824-11.244-7.647-11.134-1.245-7.828-8.799-8.87-5.813-4.566-8.146-2.52-.294-2.506-2.985-10.092-4.23-13.869-5.884-11.495-4.05-14.393-7.78 10.575 8.972 9.586 4.646 11.96 6.479 8.183 4.826.338.529-7.089 1.305-12.33-6.477-11.159.709-10.397 2.81-8.939-1.045 8.474 5.019 10.165-.825 10.926 1.278 12.1 8.463 13.143-.476 2.145.25.306.48 6.96 6.409 5.92 9.395 9.224 1.84 9.335 8.243 5.125 11.58c-8.551 1.777-17.319 2.34-26.304 1.69-14.212-1.03-28.36-5.339-42.447-12.927l-24.65-13.279-62.126 115.33-75.274-40.547 75.065-139.36.813.002 15.225 2.02 10.647-1.592 14.971 4.004 10.876 4.486 15.251-6.042 7.392 8.073 6.717-.684 9.775 2.11 2.735-1.764 1.559 1.121 9.273 1.257 10.393.392 9.682-9.782 14.335 8.963 13.233-3.21-11.336-.311-13.386-10.724-8.733 8.02-9.445-2.152-4.65-1.686 3.824-4.765 7.686-2.434 13.482-1.796 7.143-13.19-8.814 9.556-14.318-.021-8.522.616-6.433 5.159-2.125.977-3.288-3.41-11.2 3.67-6.443-9.833-14.303 4.282-9.927-6.248-14.022-5.764-9.7-.169-14.276-3.78-.763-.095 20.576-38.199 3.193-1.671 11.173 2.365 10.974-2.459-9.077-1.063-10.225-4.126-2.816.97 23.787-44.16 3.986 1.987 7.274 6.932 15.36 3.062 6.109 8.478 5.404 12.862 17.493 1.682 5.545 14.914 13.21 4.021 10.498 4.237 11.738 10.223 11.78-.666 5.003 11.136 9.757 3.936 12.941 1.03 13.377 2.887 9.29 5.005 13.189-3.192 10.358-3.666 10.604 1.011.59-.954c-.13.863-.27 1.728-.418 2.597zM-120.74 770.1l-33.586-97.97-72.5.064-32.914 98.029-95.5.084 47.503-162.65 4.767-2.112 11.23-2.407 9.815-4.137 11.01-3.382 9.94.96 10.57-5.332 8.08 1.19 7.705-5.064 7.117 1.012 9.5-.99 9.815-4.137 10.35-6.309 10.41-8.243-9.289 4.404-9.79 4.388-9.253 2.217-3.483-.362 1.978-10.09 11.402.031 8.701-6.73 6.94-4.103 5.39-14.28 14.311-6.013 6.687-7.7 8.627-11.73 10.537-4.356-12.984 1.192-9.85 10.147-7.911 6.118-15.536 4.431-6.613 12.7-8.163 2.52-8.701 6.73-11.402-.03-2.046 10.43-12.119 5.58-4.21 2.768-2.275.84-10.01 3.412-9.379-2.88-10.45 1.462-9.254 2.218-10.67.486-4.464 1.077 34.84-119.3 2.084-.59 8.207-2.035 7.537-6.99 10.593.67 13.482-7.795 12.575.401 13.028-3.697 14.249 2.28-13.127-6.12-12.468 1.778-12.014-2.321-12.921 5.875-10.032-2.59-6.976 5.07-7.647.115-1.993.284 14.723-50.412 112-.099 32.142 109.34-.545 3.88-4.983 7.543 6.859 10.929-.165 15.094-8.344 8.86 1.118 13.515 4.835 11.077-1.976 13.061 9.267 13.813 2.378 11.834 4.79 8.763 8.215 5.888 12.68 10.274 7.118 5.783 35.938 122.25z" fill="#d0d0ce"/><path d="M-265.87 464.29l4.575-15.665M1043.3 548.21l-5.454 12.159" fill="none"/><path d="M1335.6 398.04l.112 153.75-6.859 2.275-8.052 7.014-8.741 3.927-9.773 2.214-8.385 14.217-6.679 7.354-10.281 7.188-14.573 3.936-7.71 5.64-13.2 4.277-9.25 8.902-7.528 13.7-13.026 6.507-10.463-.873-8.21 17.446 8.213-13.446 10.465 2.873 13.027-4.506 7.53-11.701 9.25-6.902 13.202-2.276 7.712-3.641 3.713-.493-9.77 5.326 13.806-3.38 1.755-2.715 5.07-.674 10.282-5.188 6.68-5.354 8.387-12.217 9.774-.214 8.744-1.927 8.053-5.014 6.86-.793.137 186.77-89 .065-.095-130-45.405 130.03-54 .04-46.598-133.97.097 134-89 .064-.1-138.17 1.428-3.406 6.851-9.183-1.08-17.135 13.24-8.875-4.326-14.476 7.296-6.043-.443-8.592 3.097-4.026 7.46 17.473 3.228-12.448 10.673-5.773 1.892-10.959 9.107-8.52 6.36-6.953 4.832-2.92 2.03-8.217 7.115-5.67 9.03-9.933 6.557-10.03-8.129 6.352-8.482 6.994.067-.134.936-12.129 6.27-12.872-2.707-14.06 2.159-8.737-6.042 7.778.766 13.58-8.212 12.392-2.878 11.65-6.03 11.9-1.195 4.838-.015.021-7.145 5.114-9.892 6.68-2.678 9.12-9.623 3.303-3.113-7.29 11.532-9.769-2.616-11.964 6.45-13.29 3.193-15.039-5.91-9.888 4.724-7.712-4.112-15.468-.874-14.084 6.292-14.62-1.97-15.606-7.58-14.4-.493-.83 48.289-.035 77.158 215.94 50.507-141.09h.073l13.376-2.671 8.531-8.548 13.095-3.631 7.51-7.009-6.162 3.243-12.42 1.748-7.858 6.665-12.702.788-.069-.013 23.46-65.536zM1696.5 424.9l-15.373 87.719-6.151 5.463-11.06 6.13-14.43 2.304-9.284 13.19-10.603-1.065-7.863 10.942 7.172-7.002 10.258 3.036 8.94-11.221 14.083-.334 10.714-4.16 5.83-3.626-20.902 119.26c-3.797 21.67-10.152 41.03-19.062 58.081s-20.002 31.097-33.274 42.14-28.735 18.652-46.388 22.834c-17.654 4.182-37.286 4.21-58.899.084l-.492-.086c-24.026-3.872-43.72-11.215-59.084-22.03-15.364-10.814-27.105-23.955-35.224-39.422s-13.005-32.482-14.658-51.047-.783-37.532 2.612-56.903l.356-2.03 9.388-.29 9.912-2.547 9.738-9.131 10.782-6.86.46-12.238 5.46-6.527 3.205-7.63 6.925-7.438-1.356-9.07-1.435-13.964 6.213-14.035 8.368-11.773 2.543-8.814-7.961-13.498 3.758-11.578 3.97-13.587 5.22-8.351-3.682-9.605 4.166-14.509-1.568-9.326 10.418-13.272-1.946-6.807 40.934 7.174-37.545 214.23c-1.554 8.865-2.118 17.396-1.693 25.592.425 8.196 2.09 15.595 4.993 22.195 2.905 6.6 7.01 12.142 12.315 16.625s12.063 7.444 20.271 8.883c8.209 1.438 15.57.951 22.084-1.46s12.177-6.242 16.988-11.49 8.811-11.654 11.997-19.217c3.187-7.564 5.557-15.778 7.111-24.642l37.545-214.23z" fill="#d0d0ce"/><path d="M1681.1 512.62l-2.393 13.657M1926.3 532.44l9.159 7.957M1968.2 764.26l-20.511 5.079" fill="none"/><path d="M2029.6 700.45c-2.216 11.812-7.062 22.525-14.538 32.137s-17.092 17.6-28.849 23.963c-5.554 3.006-11.558 5.578-18.011 7.716l-9.857-3.356-7.904-14.036-9.423-4.153-13.62-8.44-7.266-7.664-2.443-6.132-9.13-11.03-7.984.84-1.313-1.197-3.722-8.334-12.906-9.14-7.533-8.183 3.599 8.905 10.939 9.5 1.37 6.785-5.821-5.941-13.094-7.386-12.587-3.815 10.859 7.423 12.23 9.188 7.326 10.165 8.258.12 2.025 2.34 8.126 8.057 5.297 8.025 11.653 8.8 7.456 4.514 5.937 14.397 8.17 3.813.848 1.014c-.925.161-1.856.315-2.795.462-15.787 2.475-33.266 2.46-52.436-.046-14.873-1.944-28.579-5.753-41.116-11.425s-23.619-12.836-33.245-21.49c-9.626-8.654-17.477-18.673-23.553-30.056s-9.902-23.902-11.479-37.555l83.667-22.85c-.704.245-.263 2.656 1.324 7.234 1.587 4.577 4.05 9.521 7.39 14.833 3.34 5.31 7.653 10.245 12.94 14.802s11.302 6.771 18.042 6.644c5.705.073 11.566-1.682 17.58-5.266 6.016-3.584 9.463-10.025 10.343-19.323.404-5.662-1.147-11.159-4.652-16.492s-8.713-11.14-15.624-17.422c-15.388-13.441-29.72-25.315-42.996-35.623s-24.68-20.791-34.212-31.449l-.249-.28 3.654-4.328 12.919.63 2.24-15.135 9.728-3.739 7.103-11.362 3.394-11.046 6.14-7.008 2.905-13.124 9.352-7.184.712-14.811 4.272-12.485 7.262-11.14.865-14.527 2.838-14.43-1.224-14.617-5.606-7.845-.484-.184c13.298-1.81 26.786-1.972 40.465-.486 18.18 2.376 33.792 7.022 46.84 13.938 13.046 6.916 23.761 14.956 32.144 24.12s14.56 19.132 18.531 29.904 6.134 21.224 6.491 31.356l-76.639 19.229c-.516-3.765-1.475-8.009-2.874-12.73-1.4-4.721-3.587-9.21-6.56-13.464s-6.685-8.017-11.132-11.288-9.81-5.316-16.09-6.137c-6.61-.864-12.912.413-18.906 3.832s-9.53 9.26-10.61 17.523c-.822 6.28 1.016 12.15 5.513 17.613 3.68 4.47 9.16 10.246 16.441 17.327l-2.281 13.57-6.984 12.153 4.185 12.665-4.06 12.823-2.589 10.5 5.786-8.097 5.659-11.622-2.586-11.463 8.582-10.95 3.447-11.624a1472.309 1472.309 0 0136.457 28.463c12.924 10.43 24.127 21.811 33.608 34.144s16.631 25.79 21.449 40.37c4.817 14.581 5.995 31.291 3.532 50.131z" fill="#d0d0ce"/><path d="M525.97 681.39l-17.234-1.508-3.791 43.334c-.157 1.793-.488 3.47-.993 5.033-.504 1.562-1.19 2.907-2.06 4.036s-1.93 1.989-3.186 2.582-2.715.816-4.376.67-3.057-.618-4.192-1.42-2.048-1.835-2.74-3.1-1.151-2.711-1.377-4.337c-.226-1.626-.26-3.335-.104-5.128l3.792-43.334-17.234-1.508-3.905 44.63c-.343 3.918-.19 7.713.46 11.383.649 3.67 1.916 6.977 3.8 9.919s4.45 5.358 7.697 7.248c3.248 1.89 7.299 3.014 12.152 3.372l.1.009c4.377.45 8.289.106 11.735-1.031s6.395-2.92 8.85-5.35c2.454-2.428 4.422-5.418 5.904-8.969 1.482-3.55 2.414-7.518 2.798-11.9zm-67.815 84.411l9.117-104.2 1131.7 99.009-9.117 104.2zm123.13-62.607l1.464-16.736-45.426-3.974-6.484 74.117 45.426 3.974 1.464-16.736-28.69-2.51 1.046-11.954 21.119 1.848 1.464-16.736-21.119-1.848 1.046-11.954zm37.339 21.837c1.195.105 2.495-.217 3.899-.964s2.72-1.836 3.95-3.268c1.23-1.432 2.286-3.18 3.169-5.244s1.438-4.391 1.665-6.981c.215-2.458-.017-4.787-.694-6.987s-1.81-4.174-3.397-5.919-3.702-3.201-6.343-4.37c-2.642-1.167-5.79-1.911-9.442-2.23l-17.234-1.509-6.484 74.117 24.208 2.118c3.254.285 6.158-.013 8.71-.894s4.727-2.196 6.52-3.947c1.792-1.75 3.211-3.818 4.256-6.202s1.687-4.939 1.926-7.662c.162-1.86.04-3.911-.365-6.155a19.635 19.635 0 00-2.308-6.325c-1.132-1.973-2.674-3.664-4.625-5.073s-4.422-2.244-7.41-2.505zm73.338-12.154l1.464-16.736L648 692.167l-6.484 74.117 45.426 3.974 1.464-16.736-28.69-2.51 1.046-11.954 21.119 1.848 1.464-16.736-21.119-1.848 1.046-11.954zm52.56 62.418l-12.454-30.903c.863.076 2.098-.268 3.704-1.031 1.606-.763 3.233-1.96 4.881-3.588s3.134-3.691 4.456-6.186c1.323-2.494 2.13-5.401 2.42-8.722.279-3.188.18-6.258-.299-9.21s-1.469-5.583-2.973-7.89c-1.505-2.307-3.612-4.23-6.321-5.773s-6.19-2.499-10.44-2.87l-22.614-1.98-6.485 74.118 16.736 1.464 2.11-24.108.199.018 7.853 24.979zm68.149-68.722l-19.206 41.685-11.576-44.378-17.035-1.49-6.484 74.117 17.732 1.551 2.335-26.698 6.93 27.509 10.758.941 11.331-25.108-2.266 25.901 17.732 1.552 6.485-74.117zm83.291 7.187l-17.234-1.508-3.791 43.334c-.157 1.793-.488 3.47-.993 5.033-.504 1.562-1.19 2.907-2.06 4.035s-1.93 1.99-3.187 2.582-2.714.817-4.375.672-3.057-.62-4.192-1.421-2.048-1.836-2.74-3.1-1.151-2.712-1.377-4.337c-.226-1.626-.26-3.336-.104-5.129l3.792-43.334-17.234-1.508-3.905 44.63c-.343 3.919-.19 7.713.46 11.383.649 3.67 1.916 6.977 3.8 9.92 1.884 2.941 4.45 5.357 7.697 7.248 3.248 1.89 7.299 3.014 12.152 3.372l.1.008c4.377.45 8.289.107 11.735-1.03s6.395-2.921 8.85-5.35c2.454-2.428 4.422-5.418 5.904-8.97 1.482-3.55 2.414-7.518 2.798-11.9zm55.31 21.804l1.464-16.736-45.426-3.975-6.484 74.117 45.426 3.975 1.464-16.736-28.69-2.51 1.046-11.954 21.119 1.847 1.464-16.736-21.119-1.847 1.046-11.954zm60.584 25.778c.459-5.247.157-10.208-.906-14.886-1.063-4.678-2.912-8.788-5.546-12.33s-6.061-6.453-10.278-8.73c-4.218-2.276-9.216-3.667-14.993-4.172l-14.943-1.307-6.485 74.117 17.135 1.499c6.044.529 11.245-.02 15.603-1.647s7.98-4.02 10.867-7.18 5.09-6.933 6.612-11.317c1.52-4.384 2.5-9.066 2.935-14.048zm60.952-15.145l1.464-16.736-45.426-3.975-6.484 74.117 45.426 3.975 1.464-16.736-28.69-2.51 1.046-11.954 21.119 1.847 1.464-16.736-21.119-1.847 1.046-11.954zm61.734-11.463l-50.407-4.41-1.464 16.736 16.836 1.472-5.02 57.381 16.736 1.465 5.02-57.381 16.836 1.472zm52.928 21.495l1.464-16.736-45.426-3.975-6.484 74.117 45.426 3.975 1.464-16.736-28.69-2.51 1.046-11.954 21.119 1.847 1.464-16.736-21.119-1.847 1.046-11.954zm88.975 28.262c.459-5.247.157-10.208-.906-14.886-1.063-4.677-2.912-8.788-5.546-12.33s-6.061-6.453-10.278-8.73c-4.218-2.276-9.216-3.666-14.993-4.172l-14.943-1.307-6.485 74.117 17.135 1.499c6.044.529 11.245-.02 15.603-1.647s7.98-4.02 10.867-7.18 5.09-6.933 6.612-11.317c1.52-4.384 2.5-9.066 2.935-14.048zm60.952-15.145l1.464-16.736-45.426-3.975-6.484 74.117 45.426 3.975 1.464-16.736-28.69-2.51 1.046-11.954 21.119 1.847 1.464-16.736-21.119-1.847 1.046-11.954zm25.633 43.198l5.02-57.381-16.736-1.465-6.484 74.117 36.56 3.199 1.464-16.736zm78.868-34.056l1.464-16.736-45.426-3.975-6.484 74.117 16.736 1.465 2.51-28.69 21.119 1.847 1.464-16.736-21.119-1.847 1.046-11.954zm21.678 59.717l6.484-74.117-16.736-1.465-6.484 74.117zm53.604-69.994l-3.181 36.36-16.643-38.095-17.035-1.49-6.485 74.116 17.732 1.552 3.19-36.461 16.734 38.204 16.935 1.481 6.485-74.117zm72.553 23.212l1.464-16.736-45.426-3.975-6.484 74.117 45.426 3.975 1.464-16.736-28.69-2.51 1.046-11.954 21.119 1.847 1.464-16.736-21.119-1.847 1.046-11.954z" fill="#00bb31"/><path d="M1195.4 457.23l-34-34h-30.5" fill="none" stroke="#00bb31" stroke-width="6"/><path d="M1226.5 468.36l-31.069-11.122v-18l-34-34h-61l30.5 52h30.5" fill="none" stroke="#00bb31" stroke-width="6"/><path d="M1124.9 423.23a6 6 0 1112 0 6 6 0 01-12 0zM1155.4 457.23a6 6 0 1112 0 6 6 0 01-12 0zM1195.4 457.23l29.382 15.836h.074l13.376-2.67 8.53-8.549 13.096-3.631 7.51-7.008-6.162 3.242-12.421 1.748-7.857 6.665-12.702.789-.07-.014" fill="#00bb31"/><path d="M1367.7 567.51l26-26h35" fill="none" stroke="#00bb31" stroke-width="6"/><path d="M1335.7 567.54l32-.023v-17l26-26h70l-35 43h-35" fill="none" stroke="#00bb31" stroke-width="6"/><path d="M1422.7 541.51a6 6 0 1112 0 6 6 0 01-12 0zM1387.7 567.51a6 6 0 1112 0 6 6 0 01-12 0zM1335.7 583.28l-6.86.793-8.053 5.014-8.744 1.927-9.774.214-8.386 12.217-6.68 5.355-10.283 5.188-5.07.673-1.755 2.716-13.805 3.379 9.769-5.326-3.713.493-7.712 3.64-13.202 2.277-9.25 6.902-7.53 11.701-13.027 4.506-10.465-2.872-8.212 13.446 8.21-17.446 10.462.872 13.026-6.506 7.528-13.701 9.25-8.902 13.2-4.276 7.71-5.641 14.573-3.935 10.28-7.188 6.68-7.355 8.385-14.217 9.773-2.214 8.741-3.927 8.052-7.014 6.86-2.275 32.011 15.718" fill="#00bb31"/><path d="M642.7 514.12l-29-29h-31.5" fill="none" stroke="#00bb31" stroke-width="6"/><path d="M642.76 482.12l-.061 32v-15l-29-29h-63l31.5 44h31.5" fill="none" stroke="#00bb31" stroke-width="6"/><path d="M576.2 485.12a6 6 0 1112 0 6 6 0 01-12 0zM607.7 514.12a6 6 0 1112 0 6 6 0 01-12 0zM642.7 514.12l8.265-31.984-1.259-2.499-10.103-5.758-2.225-10.224-7.086-6.707-8.621-10.534-8.483-6.931-2.45-8.828-15.877-7.242 11.878 7.234.45 8.824 6.482 6.927 6.62 10.53 5.087 6.704.225 10.22 8.103 5.755.852 2.498" fill="#00bb31"/><path d="M202.45 575.26l-20-20h-24.5" fill="none" stroke="#00bb31" stroke-width="6"/><path d="M204.8 546.35l-2.35 28.905v-20l-20-20h-49l24.5 40h24.5" fill="none" stroke="#00bb31" stroke-width="6"/><path d="M151.95 555.26a6 6 0 1112 0 6 6 0 01-12 0zM176.45 575.26a6 6 0 1112 0 6 6 0 01-12 0zM202.45 575.26l8.062-28.44.147-1.165-4.55-11.683 8.583-10.942-1.556-16.159 2.713-12.187-3.704-15.066.684 12.443-4.223 10.876.046 14.848-10.092 9.631 3.04 10.372-2.513 8.105" fill="#00bb31"/><path d="M257.63 423.91l26-26h35" fill="none" stroke="#00bb31" stroke-width="6"/><path d="M240.6 455.63l17.032-31.716v-19l26-26h70l-35 45h-35" fill="none" stroke="#00bb31" stroke-width="6"/><path d="M312.63 397.91a6 6 0 1112 0 6 6 0 01-12 0zM277.63 423.91a6 6 0 1112 0 6 6 0 01-12 0zM257.63 423.91l-21.326 29.41-6.046 13.619 6.001 9.405 4.029 11.432-6.09 12.053 9.614-10.16-2.266-10.486-4.24-8.459 7.586-12.791" fill="#00bb31"/><path d="M217.07 701.32l31-31h25" fill="none" stroke="#00bb31" stroke-width="6"/><path d="M209.25 677.57l7.818 23.746v-18l31-31h50l-25 49h-25" fill="none" stroke="#00bb31" stroke-width="6"/><path d="M267.07 670.32a6 6 0 1112 0 6 6 0 01-12 0zM242.07 701.32a6 6 0 1112 0 6 6 0 01-12 0zM199.06 680.93l-5.125-11.581-9.335-8.243-9.225-1.84-5.918-9.395-6.961-6.41-.306-.478-2.145-.251-13.144.476-12.099-8.463-10.926-1.278-10.165.825-8.474-5.019 8.94 1.046 10.396-2.811 11.158-.709 12.331 6.477 7.089-1.305-.338-.529-8.183-4.826-11.96-6.48-9.586-4.645-10.575-8.971 14.393 7.78 11.495 4.05 13.87 5.883 10.091 4.23 2.506 2.985 2.52.295 4.566 8.145 8.87 5.813 7.828 8.8 11.134 1.244 11.244 7.647 6.422 10.824-2.377 27.103" fill="#00bb31"/><path d="M43.622 506.94l-37-37h-24.5" fill="none" stroke="#00bb31" stroke-width="6"/><path d="M78.838 525.91l-35.216-18.969v-20l-37-37h-49l24.5 57h24.5" fill="none" stroke="#00bb31" stroke-width="6"/><path d="M-23.878 469.94a6 6 0 1112 0 6 6 0 01-12 0zM.622 506.94a6 6 0 1112 0 6 6 0 01-12 0zM43.622 506.94l33.604 21.961 3.194-1.671 11.173 2.365 10.974-2.459-9.077-1.063-10.225-4.126-2.817.97" fill="#00bb31"/><path d="M-333.02 587.21l-40-40h-33" fill="none" stroke="#00bb31" stroke-width="6"/><path d="M-304.22 595.62l-28.797-8.41v-19l-40-40h-66l33 59h33" fill="none" stroke="#00bb31" stroke-width="6"/><path d="M-412.02 547.21a6 6 0 1112 0 6 6 0 01-12 0zM-379.02 587.21a6 6 0 1112 0 6 6 0 01-12 0zM-300.71 583.59l4.464-1.077 10.67-.487 9.254-2.217 10.45-1.462 9.38 2.88 10.009-3.413 2.275-.839 4.21-2.768 12.12-5.58 2.045-10.43 11.402.03 8.701-6.73 8.164-2.52 6.612-12.7 15.536-4.43 7.91-6.119 9.85-10.147 12.985-1.192-10.537 4.356-8.627 11.73-6.687 7.7-14.312 6.012-5.389 14.281-6.94 4.104-8.7 6.73-11.403-.032-1.978 10.09 3.483.362 9.254-2.217 9.79-4.388 9.288-4.404-10.41 8.243-10.35 6.308-9.815 4.138-9.5.99-7.117-1.012-7.704 5.065-8.08-1.191-10.57 5.333-9.94-.96-11.01 3.381-9.815 4.137-11.231 2.407-4.767 2.112-25.282-20.447" fill="#00bb31"/><path d="M28.856 568.09l-27-27h-31.5" fill="none" stroke="#00bb31" stroke-width="6"/><path d="M49.986 579.47l-21.13-11.382v-18l-27-27h-63l31.5 45h31.5" fill="none" stroke="#00bb31" stroke-width="6"/><path d="M-35.644 541.09a6 6 0 1112 0 6 6 0 01-12 0zM-4.144 568.09a6 6 0 1112 0 6 6 0 01-12 0zM56.65 567.1l.763.094 14.277 3.781 9.7.169 14.021 5.764 9.928 6.248 14.303-4.282 6.443 9.834 11.2-3.672 3.287 3.41 2.125-.976 6.434-5.16 8.521-.615 14.318.02 8.815-9.555-7.144 13.19-13.482 1.796-7.686 2.433-3.824 4.766 4.65 1.685 9.445 2.153 8.733-8.02 13.386 10.724 11.336.312-13.233 3.21-14.335-8.964-9.681 9.782-10.393-.392-9.274-1.257-1.558-1.121-2.735 1.764-9.775-2.11-6.718.683-7.391-8.072-15.251 6.042-10.876-4.486-14.971-4.004-10.647 1.592-15.225-2.02-.814-.002-14.465-23.753" fill="#00bb31"/><path d="M-301.98 445.25l-32-32h-28" fill="none" stroke="#00bb31" stroke-width="6"/><path d="M-263.58 456.46l-38.396-11.214v-17l-32-32h-56l28 49h28" fill="none" stroke="#00bb31" stroke-width="6"/><path d="M-367.98 413.25a6 6 0 1112 0 6 6 0 01-12 0zM-339.98 445.25a6 6 0 1112 0 6 6 0 01-12 0zM-301.98 445.25l36.108 19.046 2.083-.591 8.208-2.035 7.536-6.989 10.593.67 13.482-7.795 12.575.401 13.028-3.697 14.249 2.28-13.127-6.12-12.468 1.778-12.014-2.321-12.921 5.875-10.032-2.59-6.976 5.07-7.647.115-1.993.284" fill="#00bb31"/><path d="M1017.8 544.06l-23-23h-28.5" fill="none" stroke="#00bb31" stroke-width="6"/><path d="M1040.6 554.29l-22.81-10.232v-18l-23-23h-57l28.5 41h28.5" fill="none" stroke="#00bb31" stroke-width="6"/><path d="M960.27 521.06a6 6 0 1112 0 6 6 0 01-12 0zM988.77 544.06a6 6 0 1112 0 6 6 0 01-12 0zM1017.8 544.06l25.537 4.153-1.835.63-4.012 10.608.393.92m34.799-36.362l1.203-4.872 6.03-11.901 2.879-11.65 8.211-12.392-.765-13.58 6.041-7.778-2.158 8.737 2.707 14.06-6.27 12.872-.936 12.13-6.03 11.9-2.159 8.737-4.832 2.92zm-.955 3.865l.949-3.879.006.014z" fill="#00bb31"/><path d="M1719.3 526.35l37-37h28.5" fill="none" stroke="#00bb31" stroke-width="6"/><path d="M1679.9 519.45l39.4 6.905v-16l37-37h57l-28.5 53h-28.5" fill="none" stroke="#00bb31" stroke-width="6"/><path d="M1778.8 489.35a6 6 0 1112 0 6 6 0 01-12 0zM1750.3 526.35a6 6 0 1112 0 6 6 0 01-12 0zM1719.3 526.35l-38.203-13.733-6.151 5.463-11.06 6.13-14.43 2.304-9.284 13.19-10.603-1.065-7.863 10.942 7.172-7.002 10.258 3.036 8.94-11.221 14.083-.334 10.714-4.16 5.83-3.626" fill="#00bb31"/><path d="M1954.5 509.24l21-21h29" fill="none" stroke="#00bb31" stroke-width="6"/><path d="M1930.9 536.42l23.609-27.177v-16l21-21h58l-29 37h-29" fill="none" stroke="#00bb31" stroke-width="6"/><path d="M1998.5 488.24a6 6 0 1112 0 6 6 0 01-12 0zM1969.5 509.24a6 6 0 1112 0 6 6 0 01-12 0zM1954.5 509.24l-28.189 23.199-2.281 13.571-6.984 12.152 4.185 12.665-4.06 12.823-2.589 10.5 5.786-8.097 5.659-11.622-2.586-11.463 8.582-10.95 3.447-11.624" fill="#00bb31"/><path d="M1963.5 789.13l28-28h33.5" fill="none" stroke="#00bb31" stroke-width="6"/><path d="M1958 766.8l5.528 22.326v-20l28-28h67l-33.5 48h-33.5" fill="none" stroke="#00bb31" stroke-width="6"/><path d="M2019 761.13a6 6 0 1112 0 6 6 0 01-12 0zM1985.5 789.13a6 6 0 1112 0 6 6 0 01-12 0zM1947.7 769.34l-.847-1.015-8.17-3.813-5.937-14.397-7.457-4.513-11.653-8.8-5.297-8.026-8.126-8.056-2.024-2.34-8.259-.12-7.326-10.165-12.23-9.189-10.859-7.422 12.587 3.815 13.094 7.385 5.82 5.942-1.369-6.785-10.939-9.5-3.599-8.906 7.534 8.184 12.906 9.14 3.722 8.334 1.312 1.196 7.984-.839 9.13 11.03 2.444 6.131 7.265 7.665 13.62 8.44 9.424 4.152 7.904 14.036 9.856 3.357-4.727 24.865" fill="#00bb31"/></g></svg>