<svg width="300" height="300" xmlns="http://www.w3.org/2000/svg"><defs><clipPath id="a"><ellipse cx="150" cy="300" rx="140" ry="250"/></clipPath></defs>-<circle cx="150" cy="300" stroke="#000"/><path fill="red" clip-path="url(#a)" d="M0 240h300v60H0z"/><path fill="green" clip-path="url(#a)" d="M0 180h300v60H0z"/><path fill="#00f" clip-path="url(#a)" d="M0 120h300v60H0z"/><path fill="purple" clip-path="url(#a)" d="M0 60h300v60H0z"/><path fill="green" d="M0 0h30v20H0z"/><path fill="#00f" d="M30 0h30v20H30z"/><path fill="purple" d="M60 0h30v20H60zM90 0h30v20H90zM120 0h30v20h-30zM150 0h30v20h-30zM180 0h30v20h-30zM210 0h30v20h-30z"/><path fill="#00f" d="M240 0h30v20h-30z"/><path fill="green" d="M270 0h30v20h-30z"/><path d="M15 0v300M45 0v300M75 0v300M105 0v300M135 0v300M165 0v300M195 0v300M225 0v300M255 0v300M285 0v300" stroke="#000"/></svg>