<svg xmlns="http://www.w3.org/2000/svg" width="600" height="449"><path fill="none" d="M0 0h600v480H0z"/><defs><marker style="overflow:visible" id="c" refX="0" refY="0" orient="auto"><path transform="scale(.4)" style="fill:none;fill-opacity:.75;fill-rule:evenodd;stroke:red;stroke-width:1pt;stroke-opacity:1" d="M0 5.65v-11.3"/></marker><marker style="overflow:visible" id="b" refX="0" refY="0" orient="auto"><path transform="matrix(-.4 0 0 -.4 -4 0)" style="fill-rule:evenodd;stroke:red;stroke-width:1pt;stroke-opacity:1;fill:red;fill-opacity:1" d="M0 0l5-5-17.5 5L5 5 0 0z"/></marker><marker style="overflow:visible" id="a" refX="0" refY="0" orient="auto"><path transform="matrix(.4 0 0 .4 4 0)" style="fill-rule:evenodd;stroke:red;stroke-width:1pt;stroke-opacity:1;fill:red;fill-opacity:1" d="M0 0l5-5-17.5 5L5 5 0 0z"/></marker></defs><g fill="none" color="#000" stroke="currentColor"><path stroke="#000" d="M63.6 422.4h9m502.4 0h-9"/><text transform="translate(55.3 426.3)" stroke="none" fill="#000" font-family="Arial" font-size="12" text-anchor="end"><tspan>10</tspan></text></g><g fill="none" color="#000" stroke="currentColor"><path stroke="#000" d="M63.6 371.9h9m502.4 0h-9"/><text transform="translate(55.3 375.8)" stroke="none" fill="#000" font-family="Arial" font-size="12" text-anchor="end"><tspan>20</tspan></text></g><g fill="none" color="#000" stroke="currentColor"><path stroke="#000" d="M63.6 321.3h9m502.4 0h-9"/><text transform="translate(55.3 325.2)" stroke="none" fill="#000" font-family="Arial" font-size="12" text-anchor="end"><tspan>30</tspan></text></g><g fill="none" color="#000" stroke="currentColor"><path stroke="#000" d="M63.6 270.8h9m502.4 0h-9"/><text transform="translate(55.3 274.7)" stroke="none" fill="#000" font-family="Arial" font-size="12" text-anchor="end"><tspan>40</tspan></text></g><g fill="none" color="#000" stroke="currentColor"><path stroke="#000" d="M63.6 220.2h9m502.4 0h-9"/><text transform="translate(55.3 224.1)" stroke="none" fill="#000" font-family="Arial" font-size="12" text-anchor="end"><tspan>50</tspan></text></g><g fill="none" color="#000" stroke="currentColor"><path stroke="#000" d="M63.6 169.7h9m502.4 0h-9"/><text transform="translate(55.3 173.6)" stroke="none" fill="#000" font-family="Arial" font-size="12" text-anchor="end"><tspan>60</tspan></text></g><g fill="none" color="#000" stroke="currentColor"><path stroke="#000" d="M63.6 119.2h9m502.4 0h-9"/><text transform="translate(55.3 123.1)" stroke="none" fill="#000" font-family="Arial" font-size="12" text-anchor="end"><tspan>70</tspan></text></g><g fill="none" color="#000" stroke="currentColor"><path stroke="#000" d="M63.6 68.6h9m502.4 0h-9"/><text transform="translate(55.3 72.5)" stroke="none" fill="#000" font-family="Arial" font-size="12" text-anchor="end"><tspan>80</tspan></text></g><g fill="none" color="#000" stroke="currentColor"><path stroke="#000" d="M63.6 18.1h9m502.4 0h-9"/><text transform="translate(55.3 22)" stroke="none" fill="#000" font-family="Arial" font-size="12" text-anchor="end"><tspan>90</tspan></text></g><path stroke="#000" d="M63.6 422.4v-9m0-395.3v9m19.7 395.3v-4.5m0-399.8v4.5m19.6 399.8v-9m0-395.3v9m19.7 395.3v-4.5m0-399.8v4.5m19.7 399.8v-9m0-395.3v9m19.6 395.3v-4.5m0-399.8v4.5m19.7 399.8v-9m0-395.3v9m19.7 395.3v-4.5m0-399.8v4.5M221 422.4v-9m0-395.3v9m19.6 395.3v-4.5m0-399.8v4.5m19.7 399.8v-9m0-395.3v9M280 422.4v-4.5m0-399.8v4.5m19.6 399.8v-9m0-395.3v9m19.7 395.3v-4.5m0-399.8v4.5M339 422.4v-9m0-395.3v9m19.6 395.3v-4.5m0-399.8v4.5m19.7 399.8v-9m0-395.3v9M398 422.4v-4.5m0-399.8v4.5m19.6 399.8v-9m0-395.3v9m19.7 395.3v-4.5m0-399.8v4.5M457 422.4v-9m0-395.3v9m19.7 395.3v-4.5m0-399.8v4.5m19.6 399.8v-9m0-395.3v9M516 422.4v-4.5m0-399.8v4.5m19.7 399.8v-9m0-395.3v9m19.6 395.3v-4.5m0-399.8v4.5M575 422.4v-9m0-395.3v9m-511.4-9v404.3H575V18.1z" fill="none" color="#000"/><text transform="rotate(-90 118.3 102)" font-family="Arial" font-size="12" text-anchor="middle" color="#000"><tspan>humidity/%</tspan></text><text font-family="Arial" font-size="12" text-anchor="middle" color="#000" x="319.773" y="436.994"><tspan>time</tspan></text><text transform="translate(507.9 40)" font-family="Arial" font-size="12" text-anchor="end" color="#000"><tspan>humidity</tspan></text><path stroke="#9400D3" d="M516.2 36.1h42.2m-462 153.8h6.5l1.7-5 1.6 5h1.7l1.6 5.1 1.6-5.1h29.5l1.7-5 1.6 5h1.7l1.6-5h1.6l1.7-5.1 1.6-5 1.7-5.1h8.2l1.6 5.1h8.2l1.6 5h4.9l1.7-5h11.5l1.6-5.1 1.6 5.1h14.8l1.6-5.1h9.9l1.6 5.1h1.6l1.7-5.1 1.6 5.1h27.9l1.6 65.7 1.7 30.3 1.6-15.2 1.6 15.2 1.7-30.3 1.6 30.3 1.7-20.2h1.6l1.6-5.1 1.7-5 1.6-10.1 1.6-5.1 1.7-5.1 1.6-5h1.7l1.6-10.1 1.7-5.1 1.6-5 1.6-10.1h1.7l1.6-5.1 1.6-5h3.3l1.7-5.1h1.6l1.6-5h1.7l1.6-5.1h1.7l1.6-5 1.6-5.1h3.3l1.7 5.1h4.9l1.6-5.1 1.6 5.1 1.7-5.1h1.6l1.7 5.1 1.6-10.2h3.3l1.6-5h3.3l1.6 5 1.7-5 1.6 5h3.3l1.6-5h3.3l1.6 5 1.7-5 1.6-5.1h8.2l1.7-5h1.6l1.6 40.4 1.7 80.9 1.6-25.3 1.7-10.1 1.6-5.1 1.6-5h1.7l1.6-10.1 1.7-5.1 1.6 5.1 1.6-10.1 1.7 5 1.6-5h1.7l1.6-5.1h1.6l1.7-5 1.6 5 1.6-5h3.3l1.7-5.1h3.2l1.7 5.1h1.6l1.7-5.1h9.8l1.6-5 1.7 5h49.1l1.7 5.1 1.6-5.1h1.7l1.6 5.1 1.6-5.1h1.7l1.6 5.1 1.7-5.1h4.9l1.6 5.1h6.6l1.6 5 1.7 5.1 1.6 5 1.6-5 1.7 5 1.6 5.1 1.6-5.1 1.7 5.1 1.6-5.1 1.7-5 1.6 5 1.6 25.3 1.7 30.3 1.6 5.1 1.7-15.2 1.6-10.1 1.6-5.1h3.3l1.7-5h4.9l1.6-5.1h3.3l1.6-5h8.2l1.7-5.1h9.8l1.6-5h3.3" fill="none" color="#000" style="stroke:#000;stroke-opacity:1"/><path stroke="#000" d="M63.6 18.1v404.3H575V18.1z" fill="none" color="#000"/><path style="fill:none;stroke:red;stroke-width:1px;stroke-linecap:butt;stroke-linejoin:miter;stroke-opacity:1;marker-start:url(#a);marker-end:url(#marker1393)" d="M263.776 279.314c31.906 75.027 32.307 74.651 32.307 74.651l65.05-96.37"/><path style="fill:none;stroke:red;stroke-width:1px;stroke-linecap:butt;stroke-linejoin:miter;stroke-opacity:1;marker-end:url(#b)" d="M296.083 353.965l216.702-95.938"/><text xml:space="preserve" style="font-size:13.3333px;line-height:1.25;font-family:sans-serif" x="273.788" y="367.516"><tspan x="273.788" y="367.516">Lüften</tspan></text><path style="fill:none;stroke:red;stroke-width:1px;stroke-linecap:butt;stroke-linejoin:miter;stroke-opacity:1;marker-start:url(#c);marker-end:url(#StopM)" d="M257.8 116.528H364.76"/><text xml:space="preserve" style="font-size:13.3333px;line-height:1.25;font-family:sans-serif" x="275.49" y="110.887"><tspan x="275.49" y="110.887">Wäsche</tspan></text></svg>