<svg xmlns="http://www.w3.org/2000/svg" width="90" height="90"><path stroke="#000" fill="#fff" d="M37.154 8.989c3.143-2.14 6.8-4.12 10.6-4.213 6.03-.147 12.431 2.065 17.122 5.857 2.746 2.22 4.577 5.662 5.453 9.084 1.008 3.936.765 8.31-.478 12.179-1.935 6.026-8.981 9.7-10.442 15.858-2.236 9.421.41 19.634 3.375 28.853.42 1.305 1.625 2.277 1.992 3.597.306 1.101.495 2.346.123 3.426-1.497 4.346-4.444 4.46-6.505 1.05-1.588-2.63-3.557 3.241-9.168-.937-2.148-1.6-5.047 2.758-7.69 2.326-1.018-.166-1.498-1.671-2.522-1.792-1.43-.167-2.585 1.858-4.005 1.62-.645-.11-1.06-1.912-1.477-1.291-2.255 3.355-5.198 3.154-6.901-.258-10.013-20.062-10.273-45.637 2.133-66.42 2.095-3.509 5.012-6.64 8.39-8.94z"/><path d="M41.829 18.927c1.476-.783 3.845-.846 5.001.361 2.245 2.344 1.377 6.675.284 9.73-.52 1.456-1.647 2.838-3.045 3.498-1.08.51-2.559.717-3.58.1-1.251-.757-1.664-2.502-1.927-3.94-.294-1.603-.043-3.315.45-4.868.57-1.79 1.157-4 2.817-4.881zm16.262 4.798c1.857-1.064 5.259-1.19 6.39.628 2.251 3.615-.963 9.574-4.49 11.962-1.571 1.064-4.418 1.286-5.693-.12-1.145-1.265-.034-3.453.395-5.104.682-2.617 1.052-6.022 3.398-7.366z"/><path style="fill:none;stroke:#000;stroke-width:1.1;stroke-dasharray:none;stroke-opacity:1" d="M56.455 15.51c-.332 2.761-1.351 6.41-2.507 9.461-1.204 3.177-4.105 4.8-4.575 9.107"/><path fill="#fff" d="M42.127 23.31c1.7-3.03 3.084-.699 3.742.368 1.245 2.016-.192 6.406-2.55 6.637-1.456.143-2.175-2.259-2.34-3.712-.132-1.155.58-2.279 1.148-3.292zM58.754 28.054c.897-.843 2.307-3.14 2.965.48.373 2.049-1.08 5.145-3.274 5.427-.969.124-1.945-1.035-2.078-1.945-.219-1.503 1.245-2.888 2.387-3.962z"/><path d="M44.148 37.903c2.019-1.193 5.495-2.055 6.754-.188.335.497-.21 1.328-.718 1.646-1.682 1.052-4.16.8-5.946-.243-.351-.205-.44-1.008-.09-1.215z"/><path stroke="#fff" stroke-width=".98" stroke-linecap="round" d="M46.33 38.34c.805-.186 2.897.178 2.919.182"/><path fill="#fff" d="M44.22 39.117s.073 1.226 0 0z"/></svg>