<svg xmlns="http://www.w3.org/2000/svg" xmlns:xlink="http://www.w3.org/1999/xlink" width="560.716" height="684.593" viewBox="0 0 420.537 513.445"><defs><symbol overflow="visible" id="u"><path d="M3.984-1.703c0-.984-.828-1.844-1.875-1.844-1.046 0-1.875.86-1.875 1.844 0 1 .86 1.781 1.875 1.781 1.032 0 1.875-.781 1.875-1.781zM2.11-.172c-.421 0-.765-.203-.937-.484-.203-.328-.219-.719-.219-1.11 0-.312 0-.78.235-1.125.218-.28.546-.437.921-.437.422 0 .766.203.938.469.219.343.234.765.234 1.093 0 .36-.015.797-.25 1.141-.203.313-.562.453-.922.453zm0 0"/></symbol><symbol overflow="visible" id="a"><path d="M1.906-2.484H3.36c.97 0 1.922-.625 1.922-1.47 0-.78-.843-1.483-1.984-1.483H.359v.265h.188c.61 0 .625.078.625.375V-.64c0 .297-.016.375-.625.375H.359V0c.688-.031.704-.031 1.172-.031.485 0 .5 0 1.172.031v-.266h-.172c-.61 0-.625-.078-.625-.375zm-.031-.235v-2.14c0-.266.016-.313.39-.313h.829c1.36 0 1.36.86 1.36 1.219 0 .344 0 1.234-1.36 1.234zm0 0"/></symbol><symbol overflow="visible" id="c"><path d="M3.344-2.375c0-.781-.75-1.172-1.485-1.172-.656 0-1.25.25-1.25.781a.36.36 0 00.375.375c.235 0 .375-.156.375-.375 0-.187-.109-.328-.296-.359.296-.203.734-.203.78-.203.454 0 .891.312.891.969v.234c-.453.031-.984.047-1.546.281-.704.313-.844.766-.844 1.032 0 .687.812.89 1.36.89.577 0 .937-.328 1.124-.64.031.296.235.609.594.609.078 0 .75-.031.75-.766v-.437h-.25v.437c0 .328-.11.453-.281.453-.297 0-.297-.359-.297-.453zm-.61 1.25c0 .781-.64.984-.968.984C1.359-.14 1-.42 1-.812c0-.516.5-1.063 1.734-1.094zm0 0"/></symbol><symbol overflow="visible" id="d"><path d="M3.875-2.422c0-.656-.313-1.094-1.14-1.094a1.38 1.38 0 00-1.25.766v-.766l-1.157.094v.266c.547 0 .61.047.61.437v2.094c0 .36-.094.36-.61.36V0c.344-.031.688-.031.906-.031.235 0 .563 0 .907.031v-.266c-.5 0-.61 0-.61-.359v-1.438c0-.843.64-1.234 1.125-1.234s.61.344.61.844v1.828c0 .36-.094.36-.61.36V0c.344-.031.703-.031.906-.031.235 0 .579 0 .922.031v-.266c-.515 0-.609 0-.609-.359zm0 0"/></symbol><symbol overflow="visible" id="e"><path d="M3.297-1.813c.172 0 .219 0 .219-.187 0-.703-.391-1.547-1.516-1.547-.984 0-1.766.813-1.766 1.797 0 1.031.86 1.828 1.875 1.828 1 0 1.407-.844 1.407-1.031a.12.12 0 00-.125-.11c-.094 0-.11.047-.125.094a1.14 1.14 0 01-1.11.797c-.36 0-.734-.156-.969-.531-.234-.36-.234-.875-.234-1.11zM.953-2.03c.078-1.11.75-1.297 1.047-1.297.938 0 .969 1.125.969 1.297zm0 0"/></symbol><symbol overflow="visible" id="f"><path d="M6.219-2.422c0-.64-.282-1.094-1.14-1.094-.735 0-1.11.5-1.235.735-.14-.578-.594-.735-1.11-.735a1.37 1.37 0 00-1.25.766v-.766l-1.156.094v.266c.547 0 .61.047.61.437v2.094c0 .36-.094.36-.61.36V0c.344-.031.688-.031.906-.031.235 0 .563 0 .907.031v-.266c-.5 0-.61 0-.61-.359v-1.438c0-.843.64-1.234 1.14-1.234.517 0 .61.406.61.844v1.828c0 .36-.11.36-.61.36V0c.345-.031.688-.031.907-.031.235 0 .563 0 .906.031v-.266c-.515 0-.609 0-.609-.359v-1.438c0-.843.64-1.234 1.14-1.234.516 0 .61.406.61.844v1.828c0 .36-.11.36-.61.36V0c.344-.031.688-.031.907-.031.234 0 .562 0 .906.031v-.266c-.516 0-.61 0-.61-.359zm0 0"/></symbol><symbol overflow="visible" id="g"><path d="M1.547-4.906c0-.235-.172-.453-.438-.453a.437.437 0 00-.437.437.45.45 0 00.437.453.436.436 0 00.438-.437zM.359-3.422v.266c.516 0 .579.047.579.437v2.094c0 .36-.094.36-.61.36V0c.313-.031.766-.031.89-.031.095 0 .579 0 .86.031v-.266c-.531 0-.562-.03-.562-.343v-2.907zm0 0"/></symbol><symbol overflow="visible" id="h"><path d="M1.484-3.172h1.188v-.265H1.484v-1.47h-.25c0 .735-.328 1.485-1.078 1.516v.22h.719V-1c0 .938.719 1.078 1.078 1.078.547 0 .86-.469.86-1.078v-.438h-.25v.422c0 .547-.25.844-.547.844-.532 0-.532-.687-.532-.812zm0 0"/></symbol><symbol overflow="visible" id="i"><path d="M7.734-4.64c.11-.329.329-.532.797-.532v-.266c-.265.016-.531.016-.781.016s-.484 0-.922-.016v.266c.438 0 .656.203.656.422 0 .031 0 .047-.03.156L6.187-.922 4.843-4.797c-.032-.094-.032-.11-.032-.14 0-.235.407-.235.641-.235v-.266c-.687.016-.703.016-1.11.016-.296 0-.624 0-.984-.016v.266c.422 0 .547.016.641.14.063.095.203.563.203.579l-.031.094L2.984-.922 1.656-4.797c-.047-.11-.047-.125-.047-.14 0-.235.422-.235.657-.235v-.266c-.688.016-.704.016-1.11.016-.297 0-.64 0-1-.016v.266c.469 0 .61 0 .719.297l1.672 4.86c.047.109.078.187.203.187.11 0 .156-.078.188-.188l1.406-4.062L5.75-.016c.031.094.063.188.188.188s.156-.078.203-.188zm0 0"/></symbol><symbol overflow="visible" id="j"><path d="M2.844-3.344c0-.125 0-.203-.11-.203-.046 0-.062 0-.187.125-.016 0-.094.078-.11.078-.015 0-.03 0-.078-.031-.125-.094-.359-.172-.718-.172-1.11 0-1.36.594-1.36.985 0 .39.297.624.313.656.328.234.5.265 1.047.36.375.077.984.187.984.718 0 .312-.203.687-.938.687C.875-.14.641-.766.548-1.187c-.031-.11-.047-.141-.14-.141-.126 0-.126.062-.126.219v.984c0 .125 0 .203.094.203.063 0 .063 0 .203-.156.047-.047.125-.14.172-.188.36.329.734.344.938.344 1.015 0 1.359-.578 1.359-1.11 0-.374-.219-.937-1.172-1.109a10.121 10.121 0 00-.547-.093c-.25-.063-.625-.235-.625-.547 0-.235.188-.578.938-.578.89 0 .937.656.953.875 0 .062.062.093.11.093.14 0 .14-.062.14-.203zm0 0"/></symbol><symbol overflow="visible" id="k"><path d="M1.469-1.813c0-.609.25-1.468 1.015-1.484-.046.031-.14.094-.14.281 0 .25.203.36.36.36.187 0 .358-.125.358-.36 0-.28-.25-.5-.609-.5-.515 0-.875.391-1.031.844h-.016v-.844l-1.125.094v.266c.547 0 .61.047.61.437v2.094c0 .36-.11.36-.61.36V0c.313-.031.75-.031.938-.031.468 0 .484 0 1 .031v-.266h-.156c-.579 0-.594-.078-.594-.375zm0 0"/></symbol><symbol overflow="visible" id="l"><path d="M2.656-3.422v.266c.547 0 .61.047.61.437v1.39C3.266-.64 2.859-.14 2.25-.14c-.688 0-.719-.343-.719-.75v-2.625l-1.203.094v.266c.61 0 .61.015.61.719v1.203c0 .578 0 1.312 1.265 1.312.75 0 1.047-.578 1.078-.64h.016v.64L4.484 0v-.266c-.546 0-.609-.046-.609-.437v-2.813zm0 0"/></symbol><symbol overflow="visible" id="m"><path d="M2.094 1.281c-.516 0-.61 0-.61-.36V-.39a1.37 1.37 0 001.047.47c1 0 1.89-.782 1.89-1.798 0-1-.812-1.797-1.78-1.797-.313 0-.766.079-1.172.5v-.5L.28-3.422v.266c.563 0 .61.047.61.375V.922c0 .36-.11.36-.61.36v.265c.344-.031.688-.031.906-.031.235 0 .563 0 .907.03zm-.61-3.937c.188-.313.594-.61 1.094-.61.61 0 1.125.672 1.125 1.547 0 .907-.578 1.578-1.219 1.578-.28 0-.64-.125-.906-.515-.094-.14-.094-.156-.094-.297zm0 0"/></symbol><symbol overflow="visible" id="n"><path d="M1.703-4.938a.407.407 0 00-.406-.421.42.42 0 00-.422.421c0 .22.172.407.422.407a.403.403 0 00.406-.407zm1.64 0a.417.417 0 00-.405-.421.41.41 0 00-.422.421c0 .25.203.407.421.407a.403.403 0 00.407-.407zm0 0"/></symbol><symbol overflow="visible" id="o"><path d="M3.875-2.422c0-.656-.313-1.094-1.14-1.094-.704 0-1.063.454-1.22.704v-2.72l-1.187.095v.265c.547 0 .61.047.61.438v4.109c0 .36-.094.36-.61.36V0c.344-.031.688-.031.906-.031.235 0 .563 0 .907.031v-.266c-.5 0-.61 0-.61-.359v-1.438c0-.843.64-1.234 1.125-1.234s.61.344.61.844v1.828c0 .36-.094.36-.61.36V0c.344-.031.703-.031.906-.031.235 0 .579 0 .922.031v-.266c-.515 0-.609 0-.609-.359zm0 0"/></symbol><symbol overflow="visible" id="p"><path d="M1.516-5.531l-1.188.093v.266c.547 0 .61.047.61.438v4.109c0 .36-.094.36-.61.36V0c.313-.031.766-.031.906-.031.157 0 .579 0 .891.031v-.266c-.5 0-.61 0-.61-.359zm0 0"/></symbol><symbol overflow="visible" id="q"><path d="M2.625-5.438v.266c.531 0 .61.047.61.438v1.687a1.409 1.409 0 00-1.079-.469c-1 0-1.875.782-1.875 1.797 0 .985.797 1.797 1.797 1.797.469 0 .86-.219 1.125-.5v.5L4.422 0v-.266c-.547 0-.61-.046-.61-.437v-4.828zm.578 4.454c0 .14 0 .171-.125.328a1.146 1.146 0 01-.953.515c-.375 0-.688-.187-.875-.484-.219-.313-.266-.703-.266-1.078 0-.469.079-.797.266-1.063.188-.296.547-.53.953-.53.375 0 .766.202 1 .608zm0 0"/></symbol><symbol overflow="visible" id="r"><path d="M3.375-5.516c-.047-.109-.063-.171-.203-.171s-.172.062-.203.171L1.188-.828c-.079.219-.25.562-.907.562V0c.266-.031.688-.031.828-.031.25 0 .5 0 .875.031v-.266c-.343 0-.546-.171-.546-.39 0-.063 0-.078.03-.172l.376-1h2.172l.453 1.187A.419.419 0 014.5-.5c0 .234-.406.234-.64.234V0c.687-.031.703-.031 1.14-.031.438 0 .594 0 1.047.031v-.266h-.14c-.5 0-.579-.062-.673-.328zm-.438.829l.97 2.593h-1.97zm0 0"/></symbol><symbol overflow="visible" id="s"><path d="M3.813-5.531l-.329.047c-.03 0-.03 0-.062-.016-.266-.11-.61-.11-.719-.11-.86 0-1.812.423-1.812 1.298v.875H.234v.265h.657v2.547c0 .36-.11.36-.61.36V0c.313-.031.75-.031.89-.031.157 0 .595 0 .907.031v-.266c-.515 0-.61 0-.61-.359v-2.547h1.766v2.547c0 .36-.109.36-.609.36V0c.313-.031.75-.031.89-.031.157 0 .594 0 .907.031v-.266c-.516 0-.61 0-.61-.359zM1.437-3.438v-.859c0-.734.625-1.094 1.266-1.094.281 0 .406.032.5.063-.11.062-.156.172-.156.297 0 .218.172.312.187.312v1.282zm0 0"/></symbol><symbol overflow="visible" id="t"><path d="M3.813-3.172h.953v-.265H3.78v-.891c0-.719.406-1.063.75-1.063.032 0 .125 0 .235.047-.141.063-.188.203-.188.313 0 .203.156.36.36.36.218 0 .359-.157.359-.36 0-.344-.328-.578-.75-.578-.297 0-.64.109-.906.328-.266-.313-.735-.328-.954-.328-.796 0-1.796.39-1.796 1.296v.875H.234v.266h.657v2.547c0 .36-.11.36-.61.36V0c.313-.031.75-.031.89-.031.157 0 .595 0 .907.031v-.266c-.515 0-.61 0-.61-.359v-2.547h1.766v2.547c0 .36-.109.36-.609.36V0c.313-.031.75-.031.938-.031.468 0 .484 0 1 .031v-.266h-.157c-.578 0-.593-.078-.593-.375zm-2.376-.265v-.86c0-.781.704-1.094 1.235-1.094.078 0 .375 0 .61.125a.377.377 0 00-.235.344c0 .063.015.234.203.313-.016.093-.016.25-.016.28v.891zm0 0"/></symbol><symbol overflow="visible" id="b"><path d="M1.516-3.172h.968v-.265H1.5v-.891c0-.703.39-1.063.734-1.063.125 0 .204.032.235.047-.14.063-.188.203-.188.313 0 .203.156.36.36.36.218 0 .359-.157.359-.36 0-.344-.328-.578-.75-.578-.594 0-1.313.437-1.313 1.28v.891H.281v.266h.656v2.547c0 .36-.093.36-.609.36V0c.313-.031.75-.031.953-.031.469 0 .485 0 1 .031v-.266h-.156c-.594 0-.61-.078-.61-.375zm0 0"/></symbol><symbol overflow="visible" id="v"><path d="M1.375-.547C1.125-.578.937-.78.937-1.078c0-.188.047-.266.094-.328.344.187.657.234.844.234.781 0 1.375-.547 1.375-1.172 0-.297-.14-.562-.328-.765.11-.094.375-.266.765-.266-.03.016-.078.063-.078.188 0 .14.11.25.25.25a.25.25 0 00.25-.266.43.43 0 00-.453-.406c-.14 0-.531.046-.89.375a1.585 1.585 0 00-.891-.282c-.781 0-1.36.547-1.36 1.172 0 .375.204.656.376.813a.934.934 0 00.094 1.36c-.422.108-.75.421-.75.78 0 .579.828 1.032 1.874 1.032 1 0 1.875-.407 1.875-1.047 0-.422-.25-.766-.515-.89-.469-.25-.86-.25-1.64-.25zm.5-.86c-.734 0-.734-.765-.734-.937 0-.297.03-.5.156-.656a.717.717 0 01.578-.281c.734 0 .734.765.734.937 0 .297-.03.5-.156.656a.703.703 0 01-.578.282zM2.25-.03c.219 0 1.266 0 1.266.64 0 .422-.61.797-1.407.797-.796 0-1.406-.375-1.406-.797 0-.171.14-.64.781-.64zm0 0"/></symbol><symbol overflow="visible" id="w"><path d="M1.469-5.531L.28-5.438v.266c.547 0 .61.047.61.438V0h.234l.297-.5a1.32 1.32 0 001.11.578c1 0 1.89-.781 1.89-1.797 0-1-.828-1.797-1.797-1.797-.64 0-1.016.344-1.156.485zm.015 3.015c0-.156 0-.171.125-.312a1.26 1.26 0 01.97-.469c.405 0 .718.25.874.485.14.218.25.5.25 1.078 0 .187 0 .75-.281 1.125-.297.359-.672.468-.922.468-.39 0-.703-.203-.922-.515-.094-.156-.094-.156-.094-.313zm0 0"/></symbol><symbol overflow="visible" id="x"><path d="M4.625-5.125c.063-.11.063-.14.063-.172 0-.14-.079-.14-.22-.14H.689L.594-3.641h.25c.062-1.171.61-1.53 1.656-1.53h1.328L.531-.329C.47-.234.47-.188.47-.156.469 0 .547 0 .688 0h3.906l.14-2.14H4.5C4.437-1.032 4.25-.282 2.75-.282H1.344zm0 0"/></symbol><symbol overflow="visible" id="y"><path d="M5.266-2.625c.062-.188.203-.531.671-.547v-.265c-.265.03-.28.03-.625.03-.25 0-.468 0-.718-.03v.265c.343.016.437.219.437.36 0 .109-.031.156-.047.203l-.75 1.984-.828-2.172c-.031-.11-.031-.125-.031-.156 0-.203.25-.219.438-.219v-.265c-.313.03-.735.03-.813.03-.172 0-.5 0-.734-.03v.265c.484 0 .5.047.656.469L2.187-.734l-.796-2.079c0-.03-.032-.109-.032-.14 0-.219.297-.219.438-.219v-.265c-.344.03-.703.03-.844.03-.14 0-.562 0-.781-.03v.265c.39 0 .469.031.562.25L1.797-.109c.047.125.078.187.203.187.14 0 .172-.094.203-.187l.844-2.235.844 2.235c.046.093.078.187.218.187.125 0 .157-.078.188-.172zm0 0"/></symbol><symbol overflow="visible" id="z"><path d="M3.313-3.156c.046-.078.062-.094.062-.156 0-.126-.094-.126-.219-.126H.453l-.11 1.329h.25c.048-.829.235-1.11 1.126-1.11h.906L.312-.297C.25-.219.234-.203.234-.14.234 0 .328 0 .47 0h2.797l.14-1.531h-.25C3.078-.61 2.922-.25 1.937-.25H1zm0 0"/></symbol><symbol overflow="visible" id="A"><path d="M2.938-3.156a.336.336 0 00-.266.344c0 .218.156.374.375.374s.375-.14.375-.39c0-.485-.531-.719-1.281-.719-1.11 0-1.86.875-1.86 1.828C.281-.703 1.11.078 2.11.078c1.125 0 1.407-.937 1.407-1.031 0-.094-.11-.094-.125-.094-.063 0-.094 0-.125.078a1.071 1.071 0 01-1.079.797C1.704-.172.984-.547.984-1.734c0-1.141.594-1.579 1.172-1.579.078 0 .5 0 .781.157zm0 0"/></symbol><symbol overflow="visible" id="B"><path d="M4.938-5.422H.343v.266H.53c.61 0 .625.093.625.39V-.64c0 .297-.015.375-.625.375H.344V0c.687-.031.703-.031 1.234-.031.375 0 .953 0 1.313.031v-.266h-.25c-.75 0-.75-.109-.75-.39v-1.922h.734c.781 0 .875.25.875.922h.25v-2.125H3.5c0 .687-.094.937-.875.937h-.734v-1.984c0-.266.015-.328.375-.328h1.062c1.297 0 1.453.5 1.594 1.547h.234zm0 0"/></symbol><symbol overflow="visible" id="C"><path d="M.375-5.438v.266h.188c.609 0 .625.078.625.375V-.64c0 .297-.016.375-.625.375H.374V0h3.266c1.093 0 1.875-.703 1.875-1.453 0-.656-.61-1.281-1.61-1.39.86-.188 1.375-.704 1.375-1.25 0-.72-.797-1.345-1.875-1.345zm1.484 2.5v-1.921c0-.266.016-.313.391-.313h1.11c.78 0 1.14.61 1.14 1.078 0 .547-.469 1.157-1.39 1.157zM2.25-.265c-.375 0-.39-.046-.39-.328v-2.125h1.624c.766 0 1.22.625 1.22 1.25 0 .64-.532 1.203-1.345 1.203zm0 0"/></symbol><symbol overflow="visible" id="D"><path d="M2.406-2.172l.672-.531c.531-.422.86-.453 1.063-.469v-.265c-.204.03-.313.03-.641.03-.39 0-.5-.015-.844-.03v.265c.156.016.188.11.188.156 0 .172-.172.313-.235.36l-1.14.922v-3.797L.28-5.438v.266c.547 0 .61.047.61.438v4.109c0 .36-.11.36-.61.36V0c.313-.031.735-.031.875-.031.157 0 .578 0 .89.031v-.266c-.515 0-.608 0-.608-.359v-.766l.53-.437c.032 0 .235.281.36.437.125.157.25.329.375.485.125.156.281.36.281.484 0 .14-.14.156-.25.156V0c.344-.031.704-.031.844-.031.297 0 .469 0 .735.031v-.266c-.329 0-.47-.03-.766-.406zm0 0"/></symbol><symbol overflow="visible" id="E"><path d="M1.86-3.328c-.516-.11-.891-.516-.891-1 0-.547.469-1.047 1.156-1.047 1.375 0 1.563 1.297 1.61 1.594.015.094.015.14.124.14.125 0 .125-.046.125-.203v-1.562c0-.125 0-.203-.109-.203-.063 0-.078.015-.125.109l-.281.453c-.406-.437-.906-.562-1.344-.562-.953 0-1.656.718-1.656 1.53 0 .61.344.938.5 1.095.281.28.547.343 1.406.546.688.157.797.188 1.063.47a1.133 1.133 0 01-.89 1.875C1.67-.094.765-.517.717-1.626.704-1.75.704-1.813.595-1.813c-.125 0-.125.063-.125.22v1.546c0 .14 0 .219.11.219C.64.172.64.156.702.078.734.031.766-.047.984-.375c.5.438 1.094.547 1.579.547.984 0 1.656-.797 1.656-1.64a1.62 1.62 0 00-1.266-1.595zm0 0"/></symbol><symbol overflow="visible" id="F"><path d="M3.406-3.313L4.97-4.687c.515-.47.937-.485 1.125-.485v-.266c-.313.016-.328.016-.735.016-.406 0-.437 0-.953-.016v.266c.157 0 .297.078.297.234 0 .063-.031.172-.172.297l-2.64 2.344v-2.5c0-.297.015-.375.625-.375h.171v-.266c-.671.016-.687.016-1.171.016-.47 0-.485 0-1.172-.016v.266H.53c.61 0 .625.078.625.375V-.64c0 .297-.015.375-.625.375H.344V0c.687-.031.703-.031 1.172-.031.484 0 .5 0 1.171.031v-.266h-.171c-.61 0-.625-.078-.625-.375v-1.328l1.03-.922L4.47-.75c.078.094.125.172.125.266 0 .218-.282.218-.422.218V0c.687-.031.703-.031 1.094-.031.218 0 .656 0 .937.031v-.266c-.281 0-.547 0-.781-.312zm0 0"/></symbol><symbol overflow="visible" id="G"><path d="M1.484-.125c0 .25 0 .89-.593 1.469-.032.015-.047.031-.047.078 0 .078.062.125.11.125.093 0 .765-.625.765-1.578 0-.438-.172-.86-.547-.86a.436.436 0 00-.438.438c0 .25.172.453.438.453.187 0 .297-.094.312-.125zm0 0"/></symbol><symbol overflow="visible" id="H"><path d="M2.5-5.078c0-.219-.016-.219-.234-.219-.329.313-.75.5-1.5.5v.266c.218 0 .64 0 1.109-.203v4.078c0 .297-.031.39-.781.39H.812V0c.329-.031 1.016-.031 1.375-.031.36 0 1.047 0 1.376.031v-.266H3.28c-.75 0-.781-.093-.781-.39zm0 0"/></symbol><symbol overflow="visible" id="I"><path d="M4.031-4.86c.078-.077.078-.093.078-.265H2.08a8.79 8.79 0 01-.642-.031c-.421-.032-.421-.11-.453-.235h-.25L.47-3.703h.25c.015-.125.11-.672.219-.735.078-.046.687-.046.796-.046h1.688l-.813 1.109C1.703-2.172 1.5-.906 1.5-.281c0 .078 0 .453.375.453s.375-.36.375-.453v-.39c0-1.141.203-2.079.594-2.61zm0 0"/></symbol><symbol overflow="visible" id="J"><path d="M1.11-4.484c.109.03.421.125.765.125 1 0 1.594-.704 1.594-.829 0-.093-.047-.109-.094-.109-.016 0-.031 0-.094.031a2.982 2.982 0 01-1.11.22c-.468 0-.858-.11-1.108-.22-.079-.03-.094-.03-.11-.03-.094 0-.094.077-.094.234v2.328c0 .14 0 .234.125.234.063 0 .079-.031.125-.094.094-.11.391-.515 1.079-.515.437 0 .656.359.734.515.125.281.14.656.14.953 0 .297 0 .735-.218 1.079-.156.25-.485.484-.906.484A1.271 1.271 0 01.734-.922c.016.016.079.016.079.016.218 0 .406-.14.406-.39a.388.388 0 00-.39-.407c-.157 0-.407.078-.407.422 0 .718.625 1.453 1.531 1.453 1 0 1.844-.781 1.844-1.766 0-.922-.672-1.75-1.61-1.75-.39 0-.765.125-1.078.406zm0 0"/></symbol><symbol overflow="visible" id="K"><path d="M5.172-4.594c0-.203 0-.578.812-.578v-.266c-.359.016-.718.016-.937.016-.219 0-.578 0-.938-.016v.266c.813 0 .813.375.813.578v2.75c0 1.094-.813 1.75-1.625 1.75-.438 0-1.406-.25-1.406-1.703v-3c0-.297.015-.375.625-.375h.171v-.266c-.671.016-.687.016-1.171.016-.47 0-.485 0-1.172-.016v.266H.53c.61 0 .625.078.625.375v2.969c0 1.14.985 2 2.125 2 1.063 0 1.89-.89 1.89-1.984zm0 0"/></symbol><symbol overflow="visible" id="L"><path d="M3.125-2.344c0 1.938-.922 2.266-1.39 2.266-.173 0-.579-.016-.798-.266.36-.031.375-.297.375-.375a.37.37 0 00-.375-.375.37.37 0 00-.375.39c0 .548.454.876 1.188.876 1.094 0 2.125-1.094 2.125-2.797 0-2.063-.922-2.672-1.734-2.672-.954 0-1.797.734-1.797 1.781 0 1.016.781 1.766 1.687 1.766.563 0 .906-.36 1.094-.766zm-1.063.375c-.374 0-.609-.172-.78-.468-.188-.282-.188-.672-.188-1.079 0-.468 0-.796.218-1.125.204-.296.454-.453.829-.453.53 0 .765.532.796.563.157.39.172 1.015.172 1.172 0 .64-.343 1.39-1.046 1.39zm0 0"/></symbol><symbol overflow="visible" id="M"><path d="M3.89-2.547c0-.844-.078-1.36-.343-1.875-.344-.703-1-.875-1.438-.875-1 0-1.375.75-1.484.969C.344-3.75.328-2.953.328-2.547c0 .531.016 1.328.406 1.969.36.594.954.75 1.375.75.391 0 1.063-.125 1.47-.906.296-.579.312-1.297.312-1.813zM2.11-.062c-.266 0-.813-.126-.985-.954-.094-.453-.094-1.203-.094-1.625 0-.546 0-1.109.094-1.546.172-.813.781-.891.984-.891.266 0 .829.14.985.86.094.437.094 1.046.094 1.577 0 .47 0 1.188-.094 1.641-.172.828-.719.938-.985.938zm0 0"/></symbol><symbol overflow="visible" id="N"><path d="M2.031-5.266c-.078-.156-.078-.171-.297-.171H.391v.265h.171c.61 0 .625.078.625.375v3.938c0 .218 0 .593-.796.593V0c.359-.031.734-.031.937-.031.203 0 .578 0 .938.031v-.266c-.797 0-.797-.375-.797-.593v-4.235L3.484-.187c.047.093.079.187.188.187.11 0 .14-.094.187-.188l2.032-4.968v4.515c0 .297-.016.375-.625.375h-.172V0c.625-.031.64-.031 1.125-.031.484 0 .5 0 1.14.031v-.266h-.171c-.625 0-.641-.078-.641-.375v-4.156c0-.297.016-.375.64-.375h.172v-.266H6.016c-.22 0-.235.016-.297.157L3.875-.75zm0 0"/></symbol></defs><path d="M61.336 372.816H4.379a3.986 3.986 0 00-3.984 3.985v52.082a3.987 3.987 0 003.984 3.988h56.957c2.2 0 3.984-1.785 3.984-3.988V376.8c0-2.2-1.785-3.985-3.984-3.985zm0 0" fill="none" stroke-width=".797" stroke="#000" stroke-miterlimit="10"/><use xlink:href="#a" x="12.221" y="381.169"/><use xlink:href="#b" x="17.98" y="381.169"/><use xlink:href="#c" x="20.568" y="381.169"/><use xlink:href="#d" x="24.803" y="381.169"/><use xlink:href="#d" x="29.507" y="381.169"/><use xlink:href="#e" x="34.212" y="381.169"/><use xlink:href="#f" x="40.797" y="381.169"/><use xlink:href="#g" x="47.854" y="381.169"/><use xlink:href="#h" x="50.206" y="381.169"/><use xlink:href="#i" x="19.876" y="390.634"/><use xlink:href="#c" x="27.862" y="390.634"/><use xlink:href="#j" x="32.097" y="390.634"/><use xlink:href="#j" x="35.437" y="390.634"/><use xlink:href="#e" x="38.777" y="390.634"/><use xlink:href="#k" x="42.541" y="390.634"/><use xlink:href="#c" x="12.583" y="400.098"/><use xlink:href="#l" x="16.818" y="400.098"/><use xlink:href="#j" x="21.522" y="400.098"/><use xlink:href="#j" x="24.863" y="400.098"/><use xlink:href="#m" x="28.203" y="400.098"/><use xlink:href="#n" x="33.139" y="400.098"/><use xlink:href="#l" x="32.91" y="400.098"/><use xlink:href="#o" x="37.615" y="400.098"/><use xlink:href="#p" x="42.319" y="400.098"/><use xlink:href="#e" x="44.671" y="400.098"/><use xlink:href="#d" x="48.435" y="400.098"/><use xlink:href="#l" x="20.864" y="409.563"/><use xlink:href="#d" x="25.569" y="409.563"/><use xlink:href="#q" x="30.273" y="409.563"/><use xlink:href="#g" x="37.8" y="409.563"/><use xlink:href="#d" x="40.152" y="409.563"/><use xlink:href="#r" x="10.749" y="419.027"/><use xlink:href="#l" x="17.092" y="419.027"/><use xlink:href="#s" x="21.796" y="419.027"/><use xlink:href="#c" x="26.501" y="419.027"/><use xlink:href="#l" x="30.736" y="419.027"/><use xlink:href="#t" x="35.44" y="419.027"/><use xlink:href="#u" x="40.38" y="419.027"/><use xlink:href="#k" x="44.615" y="419.027"/><use xlink:href="#f" x="47.915" y="419.027"/><use xlink:href="#v" x="22.157" y="428.492"/><use xlink:href="#e" x="26.392" y="428.492"/><use xlink:href="#w" x="30.155" y="428.492"/><use xlink:href="#e" x="35.099" y="428.492"/><use xlink:href="#d" x="38.862" y="428.492"/><path d="M149.21.398H92.255a3.986 3.986 0 00-3.984 3.985v3.21c0 2.2 1.785 3.985 3.984 3.985h56.957c2.2 0 3.984-1.785 3.984-3.984V4.383c0-2.2-1.785-3.985-3.984-3.985zm0 0" fill="none" stroke-width=".797" stroke="#000" stroke-miterlimit="10"/><use xlink:href="#x" x="91.327" y="8.755"/><use xlink:href="#y" x="96.502" y="8.755"/><use xlink:href="#g" x="102.618" y="8.755"/><use xlink:href="#e" x="104.97" y="8.755"/><use xlink:href="#w" x="108.734" y="8.755"/><use xlink:href="#e" x="113.678" y="8.755"/><use xlink:href="#p" x="117.441" y="8.755"/><use xlink:href="#d" x="119.793" y="8.755"/><use xlink:href="#k" x="127.319" y="8.755"/><use xlink:href="#e" x="130.62" y="8.755"/><use xlink:href="#g" x="134.383" y="8.755"/><use xlink:href="#w" x="136.735" y="8.755"/><use xlink:href="#e" x="141.671" y="8.755"/><use xlink:href="#d" x="145.434" y="8.755"/><path d="M237.086 57.09h-56.953a3.988 3.988 0 00-3.988 3.988v3.207a3.988 3.988 0 003.988 3.988h56.953c2.2 0 3.984-1.785 3.984-3.988v-3.207a3.987 3.987 0 00-3.984-3.988zm0 0" fill="none" stroke-width=".797" stroke="#000" stroke-miterlimit="10"/><use xlink:href="#a" x="180.418" y="65.448"/><use xlink:href="#g" x="186.177" y="65.448"/><use xlink:href="#p" x="188.529" y="65.448"/><use xlink:href="#z" x="190.881" y="65.448"/><use xlink:href="#e" x="194.645" y="65.448"/><use xlink:href="#j" x="201.23" y="65.448"/><use xlink:href="#A" x="204.57" y="65.448"/><use xlink:href="#o" x="208.102" y="65.448"/><use xlink:href="#d" x="212.807" y="65.448"/><use xlink:href="#e" x="217.512" y="65.448"/><use xlink:href="#g" x="221.275" y="65.448"/><use xlink:href="#q" x="223.627" y="65.448"/><use xlink:href="#e" x="228.332" y="65.448"/><use xlink:href="#d" x="232.095" y="65.448"/><path d="M324.96 109.055h-56.952a3.984 3.984 0 00-3.988 3.984v12.672a3.988 3.988 0 003.988 3.988h56.953c2.2 0 3.984-1.785 3.984-3.988v-12.672a3.984 3.984 0 00-3.984-3.984zm0 0" fill="none" stroke-width=".797" stroke="#000" stroke-miterlimit="10"/><use xlink:href="#B" x="278.76" y="117.409"/><use xlink:href="#p" x="284.284" y="117.409"/><use xlink:href="#e" x="286.636" y="117.409"/><use xlink:href="#g" x="290.4" y="117.409"/><use xlink:href="#j" x="292.752" y="117.409"/><use xlink:href="#A" x="296.092" y="117.409"/><use xlink:href="#o" x="299.624" y="117.409"/><use xlink:href="#g" x="307.15" y="117.409"/><use xlink:href="#d" x="309.502" y="117.409"/><use xlink:href="#a" x="283.605" y="126.873"/><use xlink:href="#b" x="289.364" y="126.873"/><use xlink:href="#c" x="291.952" y="126.873"/><use xlink:href="#d" x="296.187" y="126.873"/><use xlink:href="#d" x="300.891" y="126.873"/><use xlink:href="#e" x="305.596" y="126.873"/><path d="M61.336 104.32H4.379a3.986 3.986 0 00-3.984 3.985v22.14c0 2.2 1.785 3.985 3.984 3.985h56.957c2.2 0 3.984-1.785 3.984-3.985v-22.14c0-2.2-1.785-3.985-3.984-3.985zm0 0" fill="none" stroke-width=".797" stroke="#000" stroke-miterlimit="10"/><use xlink:href="#r" x="4.633" y="112.677"/><use xlink:href="#l" x="10.976" y="112.677"/><use xlink:href="#s" x="15.68" y="112.677"/><use xlink:href="#c" x="20.385" y="112.677"/><use xlink:href="#l" x="24.62" y="112.677"/><use xlink:href="#t" x="29.324" y="112.677"/><use xlink:href="#u" x="34.264" y="112.677"/><use xlink:href="#k" x="38.499" y="112.677"/><use xlink:href="#f" x="41.799" y="112.677"/><use xlink:href="#g" x="51.677" y="112.677"/><use xlink:href="#f" x="54.029" y="112.677"/><use xlink:href="#C" x="16.22" y="122.141"/><use xlink:href="#c" x="22.214" y="122.141"/><use xlink:href="#A" x="26.449" y="122.141"/><use xlink:href="#D" x="29.973" y="122.141"/><use xlink:href="#u" x="34.212" y="122.141"/><use xlink:href="#b" x="38.446" y="122.141"/><use xlink:href="#e" x="41.034" y="122.141"/><use xlink:href="#d" x="44.798" y="122.141"/><use xlink:href="#c" x="12.509" y="131.606"/><use xlink:href="#l" x="16.744" y="131.606"/><use xlink:href="#b" x="21.448" y="131.606"/><use xlink:href="#y" x="24.036" y="131.606"/><use xlink:href="#n" x="30.152" y="131.606"/><g><use xlink:href="#c" x="30.155" y="131.606"/><use xlink:href="#k" x="34.389" y="131.606"/><use xlink:href="#f" x="37.69" y="131.606"/><use xlink:href="#e" x="44.746" y="131.606"/><use xlink:href="#d" x="48.51" y="131.606"/></g><path d="M324.96 155.898h-56.952a3.988 3.988 0 00-3.988 3.989v3.207a3.984 3.984 0 003.988 3.984h56.953c2.2 0 3.984-1.781 3.984-3.984v-3.207a3.987 3.987 0 00-3.984-3.989zm0 0" fill="none" stroke-width=".797" stroke="#000" stroke-miterlimit="10"/><g><use xlink:href="#c" x="280.13" y="164.255"/><use xlink:href="#d" x="284.365" y="164.255"/></g><g><use xlink:href="#w" x="288.83" y="164.255"/><use xlink:href="#k" x="293.535" y="164.255"/><use xlink:href="#c" x="296.835" y="164.255"/><use xlink:href="#h" x="301.07" y="164.255"/><use xlink:href="#e" x="304.363" y="164.255"/><use xlink:href="#d" x="308.127" y="164.255"/></g><path d="M296.484 130.098v20.742" fill="none" stroke-width=".797" stroke="#000" stroke-miterlimit="10"/><path d="M296.484 155.5c.258-1.379 1.036-3.625 1.942-5.18h-3.887c.906 1.555 1.684 3.801 1.945 5.18"/><path d="M324.96 193.281h-56.952a3.987 3.987 0 00-3.988 3.985v12.675a3.984 3.984 0 003.988 3.985h56.953c2.2 0 3.984-1.781 3.984-3.985v-12.675c0-2.2-1.785-3.985-3.984-3.985zm0 0" fill="none" stroke-width=".797" stroke="#000" stroke-miterlimit="10"/><g><use xlink:href="#f" x="272.724" y="201.637"/><use xlink:href="#g" x="279.781" y="201.637"/><use xlink:href="#h" x="282.133" y="201.637"/></g><g><use xlink:href="#E" x="288.247" y="201.637"/><use xlink:href="#c" x="292.952" y="201.637"/><use xlink:href="#p" x="297.187" y="201.637"/><use xlink:href="#z" x="299.539" y="201.637"/></g><g><use xlink:href="#l" x="306.124" y="201.637"/><use xlink:href="#d" x="310.828" y="201.637"/><use xlink:href="#q" x="315.533" y="201.637"/></g><g><use xlink:href="#a" x="269.838" y="211.102"/><use xlink:href="#b" x="275.597" y="211.102"/><use xlink:href="#e" x="278.185" y="211.102"/><use xlink:href="#t" x="281.949" y="211.102"/><use xlink:href="#e" x="286.888" y="211.102"/><use xlink:href="#k" x="290.652" y="211.102"/></g><g><use xlink:href="#y" x="296.774" y="211.102"/></g><g><use xlink:href="#n" x="303.129" y="211.102"/></g><g><use xlink:href="#l" x="302.892" y="211.102"/><use xlink:href="#k" x="307.597" y="211.102"/><use xlink:href="#z" x="310.898" y="211.102"/><use xlink:href="#e" x="314.661" y="211.102"/><use xlink:href="#d" x="318.425" y="211.102"/></g><path d="M296.484 167.477v20.746" fill="none" stroke-width=".797" stroke="#000" stroke-miterlimit="10"/><path d="M296.484 192.883c.258-1.38 1.036-3.625 1.942-5.18h-3.887c.906 1.555 1.684 3.8 1.945 5.18"/><path d="M412.836 70.512h-56.953a3.987 3.987 0 00-3.988 3.984v33.067c0 2.199 1.785 3.984 3.988 3.984h56.953c2.2 0 3.984-1.785 3.984-3.984V74.495c0-2.2-1.785-3.984-3.984-3.984zm0 0" fill="none" stroke-width=".797" stroke="#000" stroke-miterlimit="10"/><g><use xlink:href="#F" x="374.222" y="78.779"/><use xlink:href="#n" x="380.801" y="78.779"/></g><g><use xlink:href="#c" x="380.803" y="78.779"/><use xlink:href="#j" x="385.037" y="78.779"/><use xlink:href="#e" x="388.378" y="78.779"/><use xlink:href="#G" x="392.141" y="78.779"/></g><g><use xlink:href="#E" x="364.832" y="88.243"/><use xlink:href="#c" x="369.537" y="88.243"/><use xlink:href="#o" x="373.771" y="88.243"/><use xlink:href="#d" x="378.476" y="88.243"/><use xlink:href="#e" x="383.181" y="88.243"/></g><g><use xlink:href="#l" x="389.766" y="88.243"/><use xlink:href="#d" x="394.47" y="88.243"/><use xlink:href="#q" x="399.175" y="88.243"/></g><g><use xlink:href="#i" x="371.372" y="97.708"/></g><g><use xlink:href="#c" x="379.358" y="97.708"/><use xlink:href="#j" x="383.593" y="97.708"/><use xlink:href="#j" x="386.933" y="97.708"/><use xlink:href="#e" x="390.273" y="97.708"/><use xlink:href="#k" x="394.037" y="97.708"/></g><g><use xlink:href="#g" x="362.484" y="107.172"/><use xlink:href="#d" x="364.836" y="107.172"/></g><g><use xlink:href="#F" x="372.362" y="107.172"/><use xlink:href="#u" x="378.941" y="107.172"/></g><g><use xlink:href="#A" x="383.414" y="107.172"/></g><g><use xlink:href="#o" x="386.939" y="107.172"/></g><g><use xlink:href="#h" x="391.412" y="107.172"/><use xlink:href="#u" x="394.706" y="107.172"/><use xlink:href="#m" x="398.94" y="107.172"/></g><g><use xlink:href="#b" x="403.637" y="107.172"/></g><path d="M412.836 137.75h-56.953a3.984 3.984 0 00-3.988 3.984v23.688a3.984 3.984 0 003.988 3.984h56.953c2.2 0 3.984-1.781 3.984-3.984v-23.688a3.984 3.984 0 00-3.984-3.984zm0 0" fill="none" stroke-width=".797" stroke="#000" stroke-miterlimit="10"/><g><use xlink:href="#e" x="369.533" y="146.104"/><use xlink:href="#k" x="373.296" y="146.104"/><use xlink:href="#o" x="376.597" y="146.104"/><use xlink:href="#g" x="381.302" y="146.104"/><use xlink:href="#h" x="383.654" y="146.104"/><use xlink:href="#z" x="386.947" y="146.104"/><use xlink:href="#e" x="390.71" y="146.104"/><use xlink:href="#d" x="394.474" y="146.104"/></g><g><use xlink:href="#w" x="368.788" y="155.568"/><use xlink:href="#g" x="373.493" y="155.568"/><use xlink:href="#j" x="375.845" y="155.568"/></g><g><use xlink:href="#F" x="382.006" y="155.568"/><use xlink:href="#n" x="388.585" y="155.568"/></g><g><use xlink:href="#c" x="388.587" y="155.568"/><use xlink:href="#j" x="392.822" y="155.568"/><use xlink:href="#e" x="396.162" y="155.568"/></g><g><use xlink:href="#v" x="355.728" y="165.033"/><use xlink:href="#e" x="359.963" y="165.033"/><use xlink:href="#j" x="363.726" y="165.033"/><use xlink:href="#A" x="367.066" y="165.033"/></g><g><use xlink:href="#o" x="370.599" y="165.033"/><use xlink:href="#f" x="375.303" y="165.033"/><use xlink:href="#u" x="382.36" y="165.033"/><use xlink:href="#p" x="386.595" y="165.033"/><use xlink:href="#z" x="388.947" y="165.033"/><use xlink:href="#e" x="392.71" y="165.033"/><use xlink:href="#d" x="396.474" y="165.033"/></g><g><use xlink:href="#g" x="404" y="165.033"/><use xlink:href="#j" x="406.352" y="165.033"/><use xlink:href="#h" x="409.692" y="165.033"/></g><path d="M384.36 111.945v20.743" fill="none" stroke-width=".797" stroke="#000" stroke-miterlimit="10"/><path d="M384.36 137.352c.257-1.383 1.035-3.63 1.94-5.184h-3.886c.906 1.555 1.684 3.8 1.945 5.184"/><path d="M237.086 340.559h-56.953a3.987 3.987 0 00-3.988 3.984v3.21a3.984 3.984 0 003.988 3.985h56.953c2.2 0 3.984-1.781 3.984-3.984v-3.211c0-2.2-1.785-3.984-3.984-3.984zm0 0" fill="none" stroke-width=".797" stroke="#000" stroke-miterlimit="10"/><g><use xlink:href="#c" x="192.256" y="348.913"/><use xlink:href="#d" x="196.491" y="348.913"/></g><g><use xlink:href="#w" x="200.956" y="348.913"/><use xlink:href="#k" x="205.661" y="348.913"/><use xlink:href="#c" x="208.961" y="348.913"/><use xlink:href="#h" x="213.196" y="348.913"/><use xlink:href="#e" x="216.489" y="348.913"/><use xlink:href="#d" x="220.253" y="348.913"/></g><path d="M237.086 397.254h-56.953a3.987 3.987 0 00-3.988 3.984v3.211c0 2.2 1.785 3.985 3.988 3.985h56.953c2.2 0 3.984-1.786 3.984-3.985v-3.21c0-2.2-1.785-3.985-3.984-3.985zm0 0" fill="none" stroke-width=".797" stroke="#000" stroke-miterlimit="10"/><g><use xlink:href="#g" x="181.557" y="405.606"/><use xlink:href="#d" x="183.909" y="405.606"/></g><g><use xlink:href="#r" x="191.435" y="405.606"/><use xlink:href="#l" x="197.778" y="405.606"/><use xlink:href="#s" x="202.482" y="405.606"/><use xlink:href="#c" x="207.187" y="405.606"/><use xlink:href="#l" x="211.422" y="405.606"/><use xlink:href="#t" x="216.127" y="405.606"/><use xlink:href="#u" x="221.066" y="405.606"/><use xlink:href="#k" x="225.301" y="405.606"/><use xlink:href="#f" x="228.601" y="405.606"/></g><path d="M208.61 352.137v40.054" fill="none" stroke-width=".797" stroke="#000" stroke-miterlimit="10"/><path d="M208.61 396.855c.257-1.382 1.035-3.628 1.94-5.18h-3.886c.906 1.552 1.684 3.798 1.945 5.18"/><path d="M237.086 434.637h-56.953a3.984 3.984 0 00-3.988 3.984v31.602a3.988 3.988 0 003.988 3.988h56.953c2.2 0 3.984-1.785 3.984-3.988V438.62a3.984 3.984 0 00-3.984-3.984zm0 0" fill="none" stroke-width=".797" stroke="#000" stroke-miterlimit="10"/><g><use xlink:href="#H" x="180.561" y="442.987"/><use xlink:href="#I" x="184.796" y="442.987"/><use xlink:href="#J" x="189.03" y="442.987"/></g><g><use xlink:href="#q" x="194.675" y="442.987"/><use xlink:href="#e" x="199.38" y="442.987"/><use xlink:href="#v" x="203.143" y="442.987"/></g><g><use xlink:href="#K" x="210.319" y="442.987"/><use xlink:href="#f" x="216.662" y="442.987"/><use xlink:href="#p" x="223.718" y="442.987"/><use xlink:href="#l" x="226.07" y="442.987"/><use xlink:href="#b" x="230.775" y="442.987"/><use xlink:href="#h" x="233.363" y="442.987"/></g><g><use xlink:href="#L" x="187.442" y="452.452"/><use xlink:href="#M" x="191.677" y="452.452"/></g><g><use xlink:href="#N" x="198.732" y="452.452"/><use xlink:href="#g" x="206.487" y="452.452"/><use xlink:href="#d" x="208.839" y="452.452"/></g><g><use xlink:href="#l" x="213.312" y="452.452"/><use xlink:href="#h" x="218.017" y="452.452"/><use xlink:href="#e" x="221.31" y="452.452"/><use xlink:href="#d" x="225.074" y="452.452"/></g><g><use xlink:href="#g" x="184.675" y="461.916"/><use xlink:href="#f" x="187.027" y="461.916"/></g><g><use xlink:href="#C" x="196.905" y="461.916"/><use xlink:href="#c" x="202.899" y="461.916"/><use xlink:href="#A" x="207.134" y="461.916"/></g><g><use xlink:href="#D" x="210.666" y="461.916"/></g><g><use xlink:href="#u" x="214.897" y="461.916"/><use xlink:href="#b" x="219.131" y="461.916"/><use xlink:href="#e" x="221.719" y="461.916"/><use xlink:href="#d" x="225.483" y="461.916"/><use xlink:href="#G" x="230.187" y="461.916"/></g><g><use xlink:href="#c" x="191.671" y="471.381"/><use xlink:href="#w" x="195.906" y="471.381"/></g><g><use xlink:href="#q" x="200.849" y="471.381"/></g><g><use xlink:href="#e" x="205.546" y="471.381"/></g><g><use xlink:href="#A" x="209.318" y="471.381"/></g><g><use xlink:href="#D" x="212.842" y="471.381"/></g><g><use xlink:href="#e" x="217.073" y="471.381"/></g><g><use xlink:href="#d" x="220.844" y="471.381"/></g><path d="M208.61 408.832v20.742" fill="none" stroke-width=".797" stroke="#000" stroke-miterlimit="10"/><path d="M208.61 434.238c.257-1.383 1.035-3.629 1.94-5.18h-3.886c.906 1.551 1.684 3.797 1.945 5.18"/><path d="M237.086 500.41h-56.953a3.988 3.988 0 00-3.988 3.988v4.668a3.988 3.988 0 003.988 3.989h56.953c2.2 0 3.984-1.785 3.984-3.989v-4.668a3.987 3.987 0 00-3.984-3.988zm0 0" fill="none" stroke-width=".797" stroke="#000" stroke-miterlimit="10"/><g><use xlink:href="#B" x="197.727" y="508.674"/></g><g><use xlink:href="#e" x="202.542" y="508.674"/><use xlink:href="#k" x="206.305" y="508.674"/><use xlink:href="#h" x="209.606" y="508.674"/><use xlink:href="#g" x="212.899" y="508.674"/><use xlink:href="#v" x="215.251" y="508.674"/></g><path d="M208.61 474.61v20.742" fill="none" stroke-width=".797" stroke="#000" stroke-miterlimit="10"/><path d="M208.61 500.012c.257-1.38 1.035-3.625 1.94-5.18h-3.886c.906 1.555 1.684 3.8 1.945 5.18"/><path d="M65.719 402.844h105.367" fill="none" stroke-width=".797" stroke="#000" stroke-miterlimit="10"/><path d="M175.746 402.844c-1.379-.258-3.625-1.035-5.18-1.942v3.883c1.555-.906 3.801-1.683 5.18-1.941"/><path d="M296.484 214.324v62.918H208.61V335.5" fill="none" stroke-width=".797" stroke="#000" stroke-miterlimit="10"/><path d="M208.61 340.16c.257-1.379 1.035-3.625 1.94-5.18h-3.886c.906 1.555 1.684 3.801 1.945 5.18"/><path d="M208.61 68.672V335.5" fill="none" stroke-width=".797" stroke="#000" stroke-miterlimit="10"/><path d="M208.61 340.16c.257-1.379 1.035-3.625 1.94-5.18h-3.886c.906 1.555 1.684 3.801 1.945 5.18"/><path d="M120.734 11.977v265.265h131.813-43.938V335.5" fill="none" stroke-width=".797" stroke="#000" stroke-miterlimit="10"/><path d="M208.61 340.16c.257-1.379 1.035-3.625 1.94-5.18h-3.886c.906 1.555 1.684 3.801 1.945 5.18"/><path d="M384.36 169.805v233.039M384.36 402.844H246.132" fill="none" stroke-width=".797" stroke="#000" stroke-miterlimit="10"/><path d="M241.469 402.844c1.383.258 3.625 1.035 5.18 1.941v-3.883c-1.555.907-3.797 1.684-5.18 1.942"/></svg>